<?xml version="1.0" encoding="UTF-8" standalone="no"?><svg xmlns="http://www.w3.org/2000/svg" xmlns:xlink="http://www.w3.org/1999/xlink" contentScriptType="application/ecmascript" contentStyleType="text/css" height="300px" preserveAspectRatio="none" style="width:536px;height:300px;" version="1.1" viewBox="0 0 536 300" width="536px" zoomAndPan="magnify"><defs><filter height="300%" id="fslf3qf7d150c" width="300%" x="-1" y="-1"><feGaussianBlur result="blurOut" stdDeviation="2.0"/><feColorMatrix in="blurOut" result="blurOut2" type="matrix" values="0 0 0 0 0 0 0 0 0 0 0 0 0 0 0 0 0 0 .4 0"/><feOffset dx="4.0" dy="4.0" in="blurOut2" result="blurOut3"/><feBlend in="SourceGraphic" in2="blurOut3" mode="normal"/></filter></defs><g><!--cluster InterpreterExample--><polygon fill="#FFFFFF" filter="url(#fslf3qf7d150c)" points="22,24,164,24,171,47.6094,514,47.6094,514,288,22,288,22,24" style="stroke: #000000; stroke-width: 1.5;"/><line style="stroke: #000000; stroke-width: 1.5;" x1="22" x2="171" y1="47.6094" y2="47.6094"/><text fill="#000000" font-family="sans-serif" font-size="14" font-weight="bold" lengthAdjust="spacingAndGlyphs" textLength="136" x="26" y="40.5332">InterpreterExample</text><!--class Client--><rect fill="#FFFFFF" filter="url(#fslf3qf7d150c)" height="48" id="Client" style="stroke: #000000; stroke-width: 1.5;" width="64" x="38" y="81"/><ellipse cx="53" cy="97" fill="#ADD1B2" rx="11" ry="11" style="stroke: #000000; stroke-width: 1.0;"/><path d="M55.7656,92.875 Q55.9219,92.6563 56.1094,92.5469 Q56.2969,92.4375 56.5156,92.4375 Q56.8906,92.4375 57.125,92.6953 Q57.3594,92.9531 57.3594,93.5625 L57.3594,95.0156 Q57.3594,95.625 57.125,95.8906 Q56.8906,96.1563 56.5156,96.1563 Q56.1719,96.1563 55.9688,95.9531 Q55.7656,95.7656 55.6563,95.25 Q55.6094,94.8906 55.4219,94.7031 Q55.0938,94.3281 54.4844,94.1094 Q53.875,93.8906 53.25,93.8906 Q52.4844,93.8906 51.8516,94.2188 Q51.2188,94.5469 50.7266,95.2969 Q50.2344,96.0469 50.2344,97.0781 L50.2344,98.1719 Q50.2344,99.4063 51.125,100.2266 Q52.0156,101.0469 53.6094,101.0469 Q54.5469,101.0469 55.2031,100.7969 Q55.5938,100.6406 56.0156,100.2031 Q56.2813,99.9375 56.4297,99.8594 Q56.5781,99.7813 56.7813,99.7813 Q57.1094,99.7813 57.3672,100.0391 Q57.625,100.2969 57.625,100.6406 Q57.625,100.9844 57.2813,101.3906 Q56.7813,101.9688 55.9844,102.2969 Q54.9063,102.75 53.6094,102.75 Q52.0938,102.75 50.8906,102.125 Q49.9063,101.625 49.2188,100.5547 Q48.5313,99.4844 48.5313,98.2031 L48.5313,97.0469 Q48.5313,95.7188 49.1484,94.5703 Q49.7656,93.4219 50.8594,92.8047 Q51.9531,92.1875 53.1875,92.1875 Q53.9219,92.1875 54.5703,92.3516 Q55.2188,92.5156 55.7656,92.875 Z "/><text fill="#000000" font-family="sans-serif" font-size="12" lengthAdjust="spacingAndGlyphs" textLength="32" x="67" y="101.9102">Client</text><line style="stroke: #000000; stroke-width: 1.5;" x1="39" x2="101" y1="113" y2="113"/><line style="stroke: #000000; stroke-width: 1.5;" x1="39" x2="101" y1="121" y2="121"/><!--class Context--><rect fill="#FFFFFF" filter="url(#fslf3qf7d150c)" height="48" id="Context" style="stroke: #000000; stroke-width: 1.5;" width="73" x="38.5" y="217"/><ellipse cx="53.5" cy="233" fill="#ADD1B2" rx="11" ry="11" style="stroke: #000000; stroke-width: 1.0;"/><path d="M56.2656,228.875 Q56.4219,228.6563 56.6094,228.5469 Q56.7969,228.4375 57.0156,228.4375 Q57.3906,228.4375 57.625,228.6953 Q57.8594,228.9531 57.8594,229.5625 L57.8594,231.0156 Q57.8594,231.625 57.625,231.8906 Q57.3906,232.1563 57.0156,232.1563 Q56.6719,232.1563 56.4688,231.9531 Q56.2656,231.7656 56.1563,231.25 Q56.1094,230.8906 55.9219,230.7031 Q55.5938,230.3281 54.9844,230.1094 Q54.375,229.8906 53.75,229.8906 Q52.9844,229.8906 52.3516,230.2188 Q51.7188,230.5469 51.2266,231.2969 Q50.7344,232.0469 50.7344,233.0781 L50.7344,234.1719 Q50.7344,235.4063 51.625,236.2266 Q52.5156,237.0469 54.1094,237.0469 Q55.0469,237.0469 55.7031,236.7969 Q56.0938,236.6406 56.5156,236.2031 Q56.7813,235.9375 56.9297,235.8594 Q57.0781,235.7813 57.2813,235.7813 Q57.6094,235.7813 57.8672,236.0391 Q58.125,236.2969 58.125,236.6406 Q58.125,236.9844 57.7813,237.3906 Q57.2813,237.9688 56.4844,238.2969 Q55.4063,238.75 54.1094,238.75 Q52.5938,238.75 51.3906,238.125 Q50.4063,237.625 49.7188,236.5547 Q49.0313,235.4844 49.0313,234.2031 L49.0313,233.0469 Q49.0313,231.7188 49.6484,230.5703 Q50.2656,229.4219 51.3594,228.8047 Q52.4531,228.1875 53.6875,228.1875 Q54.4219,228.1875 55.0703,228.3516 Q55.7188,228.5156 56.2656,228.875 Z "/><text fill="#000000" font-family="sans-serif" font-size="12" lengthAdjust="spacingAndGlyphs" textLength="41" x="67.5" y="237.9102">Context</text><line style="stroke: #000000; stroke-width: 1.5;" x1="39.5" x2="110.5" y1="249" y2="249"/><line style="stroke: #000000; stroke-width: 1.5;" x1="39.5" x2="110.5" y1="257" y2="257"/><!--class AbstractExpression--><rect fill="#FFFFFF" filter="url(#fslf3qf7d150c)" height="61.8359" id="AbstractExpression" style="stroke: #000000; stroke-width: 1.5;" width="138" x="137" y="74"/><ellipse cx="152" cy="90" fill="#A9DCDF" rx="11" ry="11" style="stroke: #000000; stroke-width: 1.0;"/><path d="M154.1875,91.7656 L150.0469,91.7656 L149.625,92.7969 L150.0469,92.7969 Q150.6563,92.7969 150.9219,93.0313 Q151.1875,93.2656 151.1875,93.6563 Q151.1875,94.0313 150.9219,94.2656 Q150.6563,94.5 150.0469,94.5 L147.75,94.5 Q147.1406,94.5 146.8828,94.2656 Q146.625,94.0313 146.625,93.6406 Q146.625,93.2656 146.8984,93.0234 Q147.1719,92.7813 147.7969,92.7969 L150.4688,86.1406 L149.3594,86.1406 Q148.75,86.1406 148.4844,85.9063 Q148.2188,85.6719 148.2188,85.2813 Q148.2188,84.9063 148.4844,84.6719 Q148.75,84.4375 149.3594,84.4375 L153.0313,84.4375 L156.4219,92.7969 Q157.0156,92.7969 157.2031,92.9375 Q157.5938,93.2031 157.5938,93.6563 Q157.5938,94.0313 157.3359,94.2656 Q157.0781,94.5 156.4688,94.5 L154.1719,94.5 Q153.5625,94.5 153.2969,94.2656 Q153.0313,94.0313 153.0313,93.6406 Q153.0313,93.2656 153.2969,93.0313 Q153.5625,92.7969 154.1719,92.7969 L154.5938,92.7969 L154.1875,91.7656 Z M153.4688,90.0625 L152.1094,86.6875 L150.7344,90.0625 L153.4688,90.0625 Z "/><text fill="#000000" font-family="sans-serif" font-size="12" font-style="italic" lengthAdjust="spacingAndGlyphs" textLength="106" x="166" y="94.9102">AbstractExpression</text><line style="stroke: #000000; stroke-width: 1.5;" x1="138" x2="274" y1="106" y2="106"/><line style="stroke: #000000; stroke-width: 1.5;" x1="138" x2="274" y1="114" y2="114"/><ellipse cx="148" cy="125" fill="#84BE84" rx="3" ry="3" style="stroke: #038048; stroke-width: 1.0;"/><text fill="#000000" font-family="sans-serif" font-size="11" lengthAdjust="spacingAndGlyphs" textLength="111" x="157" y="129.4189">Interpret(Context): void</text><!--class TerminalExpression--><rect fill="#FFFFFF" filter="url(#fslf3qf7d150c)" height="61.8359" id="TerminalExpression" style="stroke: #000000; stroke-width: 1.5;" width="143" x="146.5" y="210"/><ellipse cx="161.5" cy="226" fill="#ADD1B2" rx="11" ry="11" style="stroke: #000000; stroke-width: 1.0;"/><path d="M164.2656,221.875 Q164.4219,221.6563 164.6094,221.5469 Q164.7969,221.4375 165.0156,221.4375 Q165.3906,221.4375 165.625,221.6953 Q165.8594,221.9531 165.8594,222.5625 L165.8594,224.0156 Q165.8594,224.625 165.625,224.8906 Q165.3906,225.1563 165.0156,225.1563 Q164.6719,225.1563 164.4688,224.9531 Q164.2656,224.7656 164.1563,224.25 Q164.1094,223.8906 163.9219,223.7031 Q163.5938,223.3281 162.9844,223.1094 Q162.375,222.8906 161.75,222.8906 Q160.9844,222.8906 160.3516,223.2188 Q159.7188,223.5469 159.2266,224.2969 Q158.7344,225.0469 158.7344,226.0781 L158.7344,227.1719 Q158.7344,228.4063 159.625,229.2266 Q160.5156,230.0469 162.1094,230.0469 Q163.0469,230.0469 163.7031,229.7969 Q164.0938,229.6406 164.5156,229.2031 Q164.7813,228.9375 164.9297,228.8594 Q165.0781,228.7813 165.2813,228.7813 Q165.6094,228.7813 165.8672,229.0391 Q166.125,229.2969 166.125,229.6406 Q166.125,229.9844 165.7813,230.3906 Q165.2813,230.9688 164.4844,231.2969 Q163.4063,231.75 162.1094,231.75 Q160.5938,231.75 159.3906,231.125 Q158.4063,230.625 157.7188,229.5547 Q157.0313,228.4844 157.0313,227.2031 L157.0313,226.0469 Q157.0313,224.7188 157.6484,223.5703 Q158.2656,222.4219 159.3594,221.8047 Q160.4531,221.1875 161.6875,221.1875 Q162.4219,221.1875 163.0703,221.3516 Q163.7188,221.5156 164.2656,221.875 Z "/><text fill="#000000" font-family="sans-serif" font-size="12" lengthAdjust="spacingAndGlyphs" textLength="111" x="175.5" y="230.9102">TerminalExpression</text><line style="stroke: #000000; stroke-width: 1.5;" x1="147.5" x2="288.5" y1="242" y2="242"/><line style="stroke: #000000; stroke-width: 1.5;" x1="147.5" x2="288.5" y1="250" y2="250"/><ellipse cx="157.5" cy="261" fill="#84BE84" rx="3" ry="3" style="stroke: #038048; stroke-width: 1.0;"/><text fill="#000000" font-family="sans-serif" font-size="11" lengthAdjust="spacingAndGlyphs" textLength="111" x="166.5" y="265.4189">Interpret(Context): void</text><!--class NonTerminalExpression--><rect fill="#FFFFFF" filter="url(#fslf3qf7d150c)" height="89.5078" id="NonTerminalExpression" style="stroke: #000000; stroke-width: 1.5;" width="188" x="310" y="60"/><ellipse cx="334.9" cy="76" fill="#ADD1B2" rx="11" ry="11" style="stroke: #000000; stroke-width: 1.0;"/><path d="M337.6656,71.875 Q337.8219,71.6563 338.0094,71.5469 Q338.1969,71.4375 338.4156,71.4375 Q338.7906,71.4375 339.025,71.6953 Q339.2594,71.9531 339.2594,72.5625 L339.2594,74.0156 Q339.2594,74.625 339.025,74.8906 Q338.7906,75.1563 338.4156,75.1563 Q338.0719,75.1563 337.8688,74.9531 Q337.6656,74.7656 337.5563,74.25 Q337.5094,73.8906 337.3219,73.7031 Q336.9938,73.3281 336.3844,73.1094 Q335.775,72.8906 335.15,72.8906 Q334.3844,72.8906 333.7516,73.2188 Q333.1188,73.5469 332.6266,74.2969 Q332.1344,75.0469 332.1344,76.0781 L332.1344,77.1719 Q332.1344,78.4063 333.025,79.2266 Q333.9156,80.0469 335.5094,80.0469 Q336.4469,80.0469 337.1031,79.7969 Q337.4938,79.6406 337.9156,79.2031 Q338.1813,78.9375 338.3297,78.8594 Q338.4781,78.7813 338.6813,78.7813 Q339.0094,78.7813 339.2672,79.0391 Q339.525,79.2969 339.525,79.6406 Q339.525,79.9844 339.1813,80.3906 Q338.6813,80.9688 337.8844,81.2969 Q336.8063,81.75 335.5094,81.75 Q333.9938,81.75 332.7906,81.125 Q331.8063,80.625 331.1188,79.5547 Q330.4313,78.4844 330.4313,77.2031 L330.4313,76.0469 Q330.4313,74.7188 331.0484,73.5703 Q331.6656,72.4219 332.7594,71.8047 Q333.8531,71.1875 335.0875,71.1875 Q335.8219,71.1875 336.4703,71.3516 Q337.1188,71.5156 337.6656,71.875 Z "/><text fill="#000000" font-family="sans-serif" font-size="12" lengthAdjust="spacingAndGlyphs" textLength="134" x="351.1" y="80.9102">NonTerminalExpression</text><line style="stroke: #000000; stroke-width: 1.5;" x1="311" x2="497" y1="92" y2="92"/><rect fill="none" height="6" style="stroke: #C82930; stroke-width: 1.0;" width="6" x="318" y="100"/><text fill="#000000" font-family="sans-serif" font-size="11" lengthAdjust="spacingAndGlyphs" textLength="162" x="330" y="107.4189">Expression1: AbstractExpression</text><rect fill="none" height="6" style="stroke: #C82930; stroke-width: 1.0;" width="6" x="318" y="113.8359"/><text fill="#000000" font-family="sans-serif" font-size="11" lengthAdjust="spacingAndGlyphs" textLength="162" x="330" y="121.2549">Expression2: AbstractExpression</text><line style="stroke: #000000; stroke-width: 1.5;" x1="311" x2="497" y1="127.6719" y2="127.6719"/><ellipse cx="321" cy="138.6719" fill="#84BE84" rx="3" ry="3" style="stroke: #038048; stroke-width: 1.0;"/><text fill="#000000" font-family="sans-serif" font-size="11" lengthAdjust="spacingAndGlyphs" textLength="111" x="330" y="143.0908">Interpret(Context): void</text><!--link Client to Context--><path d="M70.25,129.001 C70.25,129.001 70.25,211.7815 70.25,211.7815 " fill="none" id="Client-&gt;Context" style="stroke: #000000; stroke-width: 1.0;"/><polygon fill="#000000" points="70.25,216.7815,74.25,207.7815,70.25,211.7815,66.25,207.7815,70.25,216.7815" style="stroke: #000000; stroke-width: 1.0;"/><!--link Client to AbstractExpression--><path d="M102.2301,105 C102.2301,105 131.772,105 131.772,105 " fill="none" id="Client-&gt;AbstractExpression" style="stroke: #000000; stroke-width: 1.0;"/><polygon fill="#000000" points="136.772,105,127.772,101,131.772,105,127.772,109,136.772,105" style="stroke: #000000; stroke-width: 1.0;"/><!--reverse link AbstractExpression to TerminalExpression--><path d="M210.75,156.201 C210.75,156.201 210.75,209.944 210.75,209.944 " fill="none" id="AbstractExpression&lt;-TerminalExpression" style="stroke: #000000; stroke-width: 1.0;"/><polygon fill="none" points="203.75,156.201,210.75,136.201,217.75,156.201,203.75,156.201" style="stroke: #000000; stroke-width: 1.0;"/><!--reverse link AbstractExpression to NonTerminalExpression--><path d="M295.251,116 C295.251,116 309.73,116 309.73,116 " fill="none" id="AbstractExpression&lt;-NonTerminalExpression" style="stroke: #000000; stroke-width: 1.0;"/><polygon fill="none" points="295.251,123,275.251,116,295.251,109,295.251,123" style="stroke: #000000; stroke-width: 1.0;"/><!--link AbstractExpression to NonTerminalExpression--><path d="M288.251,95 C288.251,95 297.73,95 297.73,95 " fill="none" id="AbstractExpression-NonTerminalExpression" style="stroke: #000000; stroke-width: 1.0;"/><polygon fill="#FFFFFF" points="309.73,95,303.73,91,297.73,95,303.73,99,309.73,95" style="stroke: #000000; stroke-width: 1.0;"/><polygon fill="#000000" points="275.251,95,284.251,99,280.251,95,284.251,91,275.251,95" style="stroke: #000000; stroke-width: 1.0;"/><line style="stroke: #000000; stroke-width: 1.0;" x1="280.251" x2="288.251" y1="95" y2="95"/><!--
@startuml
package "InterpreterExample" {
    skinparam class {
	BackgroundColor White
	ArrowColor Black
	BorderColor Black
    }
    skinparam linetype ortho

    class Client {

    }

    class Context {

    }

    abstract class AbstractExpression {
        +Interpret(Context): void
    }

    class TerminalExpression {
        +Interpret(Context): void
    }

    class NonTerminalExpression {
        -Expression1: AbstractExpression
        -Expression2: AbstractExpression

        +Interpret(Context): void
    }

    Client -down-> Context
    Client -right-> AbstractExpression
    TerminalExpression -up-|> AbstractExpression
    NonTerminalExpression -left-|> AbstractExpression
    NonTerminalExpression o-left-> AbstractExpression
} 
@enduml

PlantUML version 1.2019.09(Mon Aug 26 21:19:51 YEKT 2019)
(GPL source distribution)
Java Runtime: Java(TM) SE Runtime Environment
JVM: Java HotSpot(TM) 64-Bit Server VM
Java Version: 1.8.0_241-b07
Operating System: Windows 10
OS Version: 10.0
Default Encoding: Cp1251
Language: en
Country: US
--></g></svg>