<?xml version="1.0" encoding="UTF-8" standalone="no"?><svg xmlns="http://www.w3.org/2000/svg" xmlns:xlink="http://www.w3.org/1999/xlink" contentScriptType="application/ecmascript" contentStyleType="text/css" height="516px" preserveAspectRatio="none" style="width:777px;height:516px;" version="1.1" viewBox="0 0 777 516" width="777px" zoomAndPan="magnify"><defs><filter height="300%" id="f3b64nfssqd53" width="300%" x="-1" y="-1"><feGaussianBlur result="blurOut" stdDeviation="2.0"/><feColorMatrix in="blurOut" result="blurOut2" type="matrix" values="0 0 0 0 0 0 0 0 0 0 0 0 0 0 0 0 0 0 .4 0"/><feOffset dx="4.0" dy="4.0" in="blurOut2" result="blurOut3"/><feBlend in="SourceGraphic" in2="blurOut3" mode="normal"/></filter></defs><g><!--cluster AbstractFactoryExample--><polygon fill="#FFFFFF" filter="url(#f3b64nfssqd53)" points="22,24,197,24,204,47.6094,755,47.6094,755,504,22,504,22,24" style="stroke: #000000; stroke-width: 1.5;"/><line style="stroke: #000000; stroke-width: 1.5;" x1="22" x2="204" y1="47.6094" y2="47.6094"/><text fill="#000000" font-family="sans-serif" font-size="14" font-weight="bold" lengthAdjust="spacingAndGlyphs" textLength="169" x="26" y="40.5332">AbstractFactoryExample</text><!--class Client--><rect fill="#FFFFFF" filter="url(#f3b64nfssqd53)" height="48" id="Client" style="stroke: #000000; stroke-width: 1.5;" width="64" x="316" y="60"/><ellipse cx="331" cy="76" fill="#ADD1B2" rx="11" ry="11" style="stroke: #000000; stroke-width: 1.0;"/><path d="M333.7656,71.875 Q333.9219,71.6563 334.1094,71.5469 Q334.2969,71.4375 334.5156,71.4375 Q334.8906,71.4375 335.125,71.6953 Q335.3594,71.9531 335.3594,72.5625 L335.3594,74.0156 Q335.3594,74.625 335.125,74.8906 Q334.8906,75.1563 334.5156,75.1563 Q334.1719,75.1563 333.9688,74.9531 Q333.7656,74.7656 333.6563,74.25 Q333.6094,73.8906 333.4219,73.7031 Q333.0938,73.3281 332.4844,73.1094 Q331.875,72.8906 331.25,72.8906 Q330.4844,72.8906 329.8516,73.2188 Q329.2188,73.5469 328.7266,74.2969 Q328.2344,75.0469 328.2344,76.0781 L328.2344,77.1719 Q328.2344,78.4063 329.125,79.2266 Q330.0156,80.0469 331.6094,80.0469 Q332.5469,80.0469 333.2031,79.7969 Q333.5938,79.6406 334.0156,79.2031 Q334.2813,78.9375 334.4297,78.8594 Q334.5781,78.7813 334.7813,78.7813 Q335.1094,78.7813 335.3672,79.0391 Q335.625,79.2969 335.625,79.6406 Q335.625,79.9844 335.2813,80.3906 Q334.7813,80.9688 333.9844,81.2969 Q332.9063,81.75 331.6094,81.75 Q330.0938,81.75 328.8906,81.125 Q327.9063,80.625 327.2188,79.5547 Q326.5313,78.4844 326.5313,77.2031 L326.5313,76.0469 Q326.5313,74.7188 327.1484,73.5703 Q327.7656,72.4219 328.8594,71.8047 Q329.9531,71.1875 331.1875,71.1875 Q331.9219,71.1875 332.5703,71.3516 Q333.2188,71.5156 333.7656,71.875 Z "/><text fill="#000000" font-family="sans-serif" font-size="12" lengthAdjust="spacingAndGlyphs" textLength="32" x="345" y="80.9102">Client</text><line style="stroke: #000000; stroke-width: 1.5;" x1="317" x2="379" y1="92" y2="92"/><line style="stroke: #000000; stroke-width: 1.5;" x1="317" x2="379" y1="100" y2="100"/><!--class AbstractProductA--><rect fill="#FFFFFF" filter="url(#f3b64nfssqd53)" height="48" id="AbstractProductA" style="stroke: #000000; stroke-width: 1.5;" width="127" x="38.5" y="318"/><ellipse cx="53.5" cy="334" fill="#B4A7E5" rx="11" ry="11" style="stroke: #000000; stroke-width: 1.0;"/><path d="M54.4531,330.6406 L54.4531,337.2969 L56.1719,337.2969 Q56.7813,337.2969 57.0469,337.5313 Q57.3125,337.7656 57.3125,338.1563 Q57.3125,338.5313 57.0469,338.7656 Q56.7813,339 56.1719,339 L51.0313,339 Q50.4219,339 50.1563,338.7656 Q49.8906,338.5313 49.8906,338.1406 Q49.8906,337.7656 50.1563,337.5313 Q50.4219,337.2969 51.0313,337.2969 L52.75,337.2969 L52.75,330.6406 L51.0313,330.6406 Q50.4219,330.6406 50.1563,330.4063 Q49.8906,330.1719 49.8906,329.7813 Q49.8906,329.4063 50.1563,329.1719 Q50.4219,328.9375 51.0313,328.9375 L56.1719,328.9375 Q56.7813,328.9375 57.0469,329.1719 Q57.3125,329.4063 57.3125,329.7813 Q57.3125,330.1719 57.0469,330.4063 Q56.7813,330.6406 56.1719,330.6406 L54.4531,330.6406 Z "/><text fill="#000000" font-family="sans-serif" font-size="12" font-style="italic" lengthAdjust="spacingAndGlyphs" textLength="95" x="67.5" y="338.9102">AbstractProductA</text><line style="stroke: #000000; stroke-width: 1.5;" x1="39.5" x2="164.5" y1="350" y2="350"/><line style="stroke: #000000; stroke-width: 1.5;" x1="39.5" x2="164.5" y1="358" y2="358"/><!--class AbstractProductB--><rect fill="#FFFFFF" filter="url(#f3b64nfssqd53)" height="48" id="AbstractProductB" style="stroke: #000000; stroke-width: 1.5;" width="127" x="611.5" y="318"/><ellipse cx="626.5" cy="334" fill="#B4A7E5" rx="11" ry="11" style="stroke: #000000; stroke-width: 1.0;"/><path d="M627.4531,330.6406 L627.4531,337.2969 L629.1719,337.2969 Q629.7813,337.2969 630.0469,337.5313 Q630.3125,337.7656 630.3125,338.1563 Q630.3125,338.5313 630.0469,338.7656 Q629.7813,339 629.1719,339 L624.0313,339 Q623.4219,339 623.1563,338.7656 Q622.8906,338.5313 622.8906,338.1406 Q622.8906,337.7656 623.1563,337.5313 Q623.4219,337.2969 624.0313,337.2969 L625.75,337.2969 L625.75,330.6406 L624.0313,330.6406 Q623.4219,330.6406 623.1563,330.4063 Q622.8906,330.1719 622.8906,329.7813 Q622.8906,329.4063 623.1563,329.1719 Q623.4219,328.9375 624.0313,328.9375 L629.1719,328.9375 Q629.7813,328.9375 630.0469,329.1719 Q630.3125,329.4063 630.3125,329.7813 Q630.3125,330.1719 630.0469,330.4063 Q629.7813,330.6406 629.1719,330.6406 L627.4531,330.6406 Z "/><text fill="#000000" font-family="sans-serif" font-size="12" font-style="italic" lengthAdjust="spacingAndGlyphs" textLength="95" x="640.5" y="338.9102">AbstractProductB</text><line style="stroke: #000000; stroke-width: 1.5;" x1="612.5" x2="737.5" y1="350" y2="350"/><line style="stroke: #000000; stroke-width: 1.5;" x1="612.5" x2="737.5" y1="358" y2="358"/><!--class AbstractFactory--><rect fill="#FFFFFF" filter="url(#f3b64nfssqd53)" height="75.6719" id="AbstractFactory" style="stroke: #000000; stroke-width: 1.5;" width="206" x="245" y="168"/><ellipse cx="301.25" cy="184" fill="#B4A7E5" rx="11" ry="11" style="stroke: #000000; stroke-width: 1.0;"/><path d="M302.2031,180.6406 L302.2031,187.2969 L303.9219,187.2969 Q304.5313,187.2969 304.7969,187.5313 Q305.0625,187.7656 305.0625,188.1563 Q305.0625,188.5313 304.7969,188.7656 Q304.5313,189 303.9219,189 L298.7813,189 Q298.1719,189 297.9063,188.7656 Q297.6406,188.5313 297.6406,188.1406 Q297.6406,187.7656 297.9063,187.5313 Q298.1719,187.2969 298.7813,187.2969 L300.5,187.2969 L300.5,180.6406 L298.7813,180.6406 Q298.1719,180.6406 297.9063,180.4063 Q297.6406,180.1719 297.6406,179.7813 Q297.6406,179.4063 297.9063,179.1719 Q298.1719,178.9375 298.7813,178.9375 L303.9219,178.9375 Q304.5313,178.9375 304.7969,179.1719 Q305.0625,179.4063 305.0625,179.7813 Q305.0625,180.1719 304.7969,180.4063 Q304.5313,180.6406 303.9219,180.6406 L302.2031,180.6406 Z "/><text fill="#000000" font-family="sans-serif" font-size="12" font-style="italic" lengthAdjust="spacingAndGlyphs" textLength="85" x="321.75" y="188.9102">AbstractFactory</text><line style="stroke: #000000; stroke-width: 1.5;" x1="246" x2="450" y1="200" y2="200"/><line style="stroke: #000000; stroke-width: 1.5;" x1="246" x2="450" y1="208" y2="208"/><ellipse cx="256" cy="219" fill="#84BE84" rx="3" ry="3" style="stroke: #038048; stroke-width: 1.0;"/><text fill="#000000" font-family="sans-serif" font-size="11" lengthAdjust="spacingAndGlyphs" textLength="180" x="265" y="223.4189">createProductA() : AbstractProductA</text><ellipse cx="256" cy="232.8359" fill="#84BE84" rx="3" ry="3" style="stroke: #038048; stroke-width: 1.0;"/><text fill="#000000" font-family="sans-serif" font-size="11" lengthAdjust="spacingAndGlyphs" textLength="178" x="265" y="237.2549">createProductB() : AbstractProductB</text><!--class ProductA1--><rect fill="#FFFFFF" filter="url(#f3b64nfssqd53)" height="48" id="ProductA1" style="stroke: #000000; stroke-width: 1.5;" width="88" x="106" y="440"/><ellipse cx="121" cy="456" fill="#ADD1B2" rx="11" ry="11" style="stroke: #000000; stroke-width: 1.0;"/><path d="M123.7656,451.875 Q123.9219,451.6563 124.1094,451.5469 Q124.2969,451.4375 124.5156,451.4375 Q124.8906,451.4375 125.125,451.6953 Q125.3594,451.9531 125.3594,452.5625 L125.3594,454.0156 Q125.3594,454.625 125.125,454.8906 Q124.8906,455.1563 124.5156,455.1563 Q124.1719,455.1563 123.9688,454.9531 Q123.7656,454.7656 123.6563,454.25 Q123.6094,453.8906 123.4219,453.7031 Q123.0938,453.3281 122.4844,453.1094 Q121.875,452.8906 121.25,452.8906 Q120.4844,452.8906 119.8516,453.2188 Q119.2188,453.5469 118.7266,454.2969 Q118.2344,455.0469 118.2344,456.0781 L118.2344,457.1719 Q118.2344,458.4063 119.125,459.2266 Q120.0156,460.0469 121.6094,460.0469 Q122.5469,460.0469 123.2031,459.7969 Q123.5938,459.6406 124.0156,459.2031 Q124.2813,458.9375 124.4297,458.8594 Q124.5781,458.7813 124.7813,458.7813 Q125.1094,458.7813 125.3672,459.0391 Q125.625,459.2969 125.625,459.6406 Q125.625,459.9844 125.2813,460.3906 Q124.7813,460.9688 123.9844,461.2969 Q122.9063,461.75 121.6094,461.75 Q120.0938,461.75 118.8906,461.125 Q117.9063,460.625 117.2188,459.5547 Q116.5313,458.4844 116.5313,457.2031 L116.5313,456.0469 Q116.5313,454.7188 117.1484,453.5703 Q117.7656,452.4219 118.8594,451.8047 Q119.9531,451.1875 121.1875,451.1875 Q121.9219,451.1875 122.5703,451.3516 Q123.2188,451.5156 123.7656,451.875 Z "/><text fill="#000000" font-family="sans-serif" font-size="12" lengthAdjust="spacingAndGlyphs" textLength="56" x="135" y="460.9102">ProductA1</text><line style="stroke: #000000; stroke-width: 1.5;" x1="107" x2="193" y1="472" y2="472"/><line style="stroke: #000000; stroke-width: 1.5;" x1="107" x2="193" y1="480" y2="480"/><!--class ProductA2--><rect fill="#FFFFFF" filter="url(#f3b64nfssqd53)" height="48" id="ProductA2" style="stroke: #000000; stroke-width: 1.5;" width="88" x="278" y="440"/><ellipse cx="293" cy="456" fill="#ADD1B2" rx="11" ry="11" style="stroke: #000000; stroke-width: 1.0;"/><path d="M295.7656,451.875 Q295.9219,451.6563 296.1094,451.5469 Q296.2969,451.4375 296.5156,451.4375 Q296.8906,451.4375 297.125,451.6953 Q297.3594,451.9531 297.3594,452.5625 L297.3594,454.0156 Q297.3594,454.625 297.125,454.8906 Q296.8906,455.1563 296.5156,455.1563 Q296.1719,455.1563 295.9688,454.9531 Q295.7656,454.7656 295.6563,454.25 Q295.6094,453.8906 295.4219,453.7031 Q295.0938,453.3281 294.4844,453.1094 Q293.875,452.8906 293.25,452.8906 Q292.4844,452.8906 291.8516,453.2188 Q291.2188,453.5469 290.7266,454.2969 Q290.2344,455.0469 290.2344,456.0781 L290.2344,457.1719 Q290.2344,458.4063 291.125,459.2266 Q292.0156,460.0469 293.6094,460.0469 Q294.5469,460.0469 295.2031,459.7969 Q295.5938,459.6406 296.0156,459.2031 Q296.2813,458.9375 296.4297,458.8594 Q296.5781,458.7813 296.7813,458.7813 Q297.1094,458.7813 297.3672,459.0391 Q297.625,459.2969 297.625,459.6406 Q297.625,459.9844 297.2813,460.3906 Q296.7813,460.9688 295.9844,461.2969 Q294.9063,461.75 293.6094,461.75 Q292.0938,461.75 290.8906,461.125 Q289.9063,460.625 289.2188,459.5547 Q288.5313,458.4844 288.5313,457.2031 L288.5313,456.0469 Q288.5313,454.7188 289.1484,453.5703 Q289.7656,452.4219 290.8594,451.8047 Q291.9531,451.1875 293.1875,451.1875 Q293.9219,451.1875 294.5703,451.3516 Q295.2188,451.5156 295.7656,451.875 Z "/><text fill="#000000" font-family="sans-serif" font-size="12" lengthAdjust="spacingAndGlyphs" textLength="56" x="307" y="460.9102">ProductA2</text><line style="stroke: #000000; stroke-width: 1.5;" x1="279" x2="365" y1="472" y2="472"/><line style="stroke: #000000; stroke-width: 1.5;" x1="279" x2="365" y1="480" y2="480"/><!--class ProductB1--><rect fill="#FFFFFF" filter="url(#f3b64nfssqd53)" height="48" id="ProductB1" style="stroke: #000000; stroke-width: 1.5;" width="89" x="410.5" y="440"/><ellipse cx="425.5" cy="456" fill="#ADD1B2" rx="11" ry="11" style="stroke: #000000; stroke-width: 1.0;"/><path d="M428.2656,451.875 Q428.4219,451.6563 428.6094,451.5469 Q428.7969,451.4375 429.0156,451.4375 Q429.3906,451.4375 429.625,451.6953 Q429.8594,451.9531 429.8594,452.5625 L429.8594,454.0156 Q429.8594,454.625 429.625,454.8906 Q429.3906,455.1563 429.0156,455.1563 Q428.6719,455.1563 428.4688,454.9531 Q428.2656,454.7656 428.1563,454.25 Q428.1094,453.8906 427.9219,453.7031 Q427.5938,453.3281 426.9844,453.1094 Q426.375,452.8906 425.75,452.8906 Q424.9844,452.8906 424.3516,453.2188 Q423.7188,453.5469 423.2266,454.2969 Q422.7344,455.0469 422.7344,456.0781 L422.7344,457.1719 Q422.7344,458.4063 423.625,459.2266 Q424.5156,460.0469 426.1094,460.0469 Q427.0469,460.0469 427.7031,459.7969 Q428.0938,459.6406 428.5156,459.2031 Q428.7813,458.9375 428.9297,458.8594 Q429.0781,458.7813 429.2813,458.7813 Q429.6094,458.7813 429.8672,459.0391 Q430.125,459.2969 430.125,459.6406 Q430.125,459.9844 429.7813,460.3906 Q429.2813,460.9688 428.4844,461.2969 Q427.4063,461.75 426.1094,461.75 Q424.5938,461.75 423.3906,461.125 Q422.4063,460.625 421.7188,459.5547 Q421.0313,458.4844 421.0313,457.2031 L421.0313,456.0469 Q421.0313,454.7188 421.6484,453.5703 Q422.2656,452.4219 423.3594,451.8047 Q424.4531,451.1875 425.6875,451.1875 Q426.4219,451.1875 427.0703,451.3516 Q427.7188,451.5156 428.2656,451.875 Z "/><text fill="#000000" font-family="sans-serif" font-size="12" lengthAdjust="spacingAndGlyphs" textLength="57" x="439.5" y="460.9102">ProductB1</text><line style="stroke: #000000; stroke-width: 1.5;" x1="411.5" x2="498.5" y1="472" y2="472"/><line style="stroke: #000000; stroke-width: 1.5;" x1="411.5" x2="498.5" y1="480" y2="480"/><!--class ProductB2--><rect fill="#FFFFFF" filter="url(#f3b64nfssqd53)" height="48" id="ProductB2" style="stroke: #000000; stroke-width: 1.5;" width="89" x="538.5" y="440"/><ellipse cx="553.5" cy="456" fill="#ADD1B2" rx="11" ry="11" style="stroke: #000000; stroke-width: 1.0;"/><path d="M556.2656,451.875 Q556.4219,451.6563 556.6094,451.5469 Q556.7969,451.4375 557.0156,451.4375 Q557.3906,451.4375 557.625,451.6953 Q557.8594,451.9531 557.8594,452.5625 L557.8594,454.0156 Q557.8594,454.625 557.625,454.8906 Q557.3906,455.1563 557.0156,455.1563 Q556.6719,455.1563 556.4688,454.9531 Q556.2656,454.7656 556.1563,454.25 Q556.1094,453.8906 555.9219,453.7031 Q555.5938,453.3281 554.9844,453.1094 Q554.375,452.8906 553.75,452.8906 Q552.9844,452.8906 552.3516,453.2188 Q551.7188,453.5469 551.2266,454.2969 Q550.7344,455.0469 550.7344,456.0781 L550.7344,457.1719 Q550.7344,458.4063 551.625,459.2266 Q552.5156,460.0469 554.1094,460.0469 Q555.0469,460.0469 555.7031,459.7969 Q556.0938,459.6406 556.5156,459.2031 Q556.7813,458.9375 556.9297,458.8594 Q557.0781,458.7813 557.2813,458.7813 Q557.6094,458.7813 557.8672,459.0391 Q558.125,459.2969 558.125,459.6406 Q558.125,459.9844 557.7813,460.3906 Q557.2813,460.9688 556.4844,461.2969 Q555.4063,461.75 554.1094,461.75 Q552.5938,461.75 551.3906,461.125 Q550.4063,460.625 549.7188,459.5547 Q549.0313,458.4844 549.0313,457.2031 L549.0313,456.0469 Q549.0313,454.7188 549.6484,453.5703 Q550.2656,452.4219 551.3594,451.8047 Q552.4531,451.1875 553.6875,451.1875 Q554.4219,451.1875 555.0703,451.3516 Q555.7188,451.5156 556.2656,451.875 Z "/><text fill="#000000" font-family="sans-serif" font-size="12" lengthAdjust="spacingAndGlyphs" textLength="57" x="567.5" y="460.9102">ProductB2</text><line style="stroke: #000000; stroke-width: 1.5;" x1="539.5" x2="626.5" y1="472" y2="472"/><line style="stroke: #000000; stroke-width: 1.5;" x1="539.5" x2="626.5" y1="480" y2="480"/><!--class ConcreteFactory1--><rect fill="#FFFFFF" filter="url(#f3b64nfssqd53)" height="75.6719" id="ConcreteFactory1" style="stroke: #000000; stroke-width: 1.5;" width="170" x="201" y="304"/><ellipse cx="234.9" cy="320" fill="#ADD1B2" rx="11" ry="11" style="stroke: #000000; stroke-width: 1.0;"/><path d="M237.6656,315.875 Q237.8219,315.6563 238.0094,315.5469 Q238.1969,315.4375 238.4156,315.4375 Q238.7906,315.4375 239.025,315.6953 Q239.2594,315.9531 239.2594,316.5625 L239.2594,318.0156 Q239.2594,318.625 239.025,318.8906 Q238.7906,319.1563 238.4156,319.1563 Q238.0719,319.1563 237.8688,318.9531 Q237.6656,318.7656 237.5563,318.25 Q237.5094,317.8906 237.3219,317.7031 Q236.9938,317.3281 236.3844,317.1094 Q235.775,316.8906 235.15,316.8906 Q234.3844,316.8906 233.7516,317.2188 Q233.1188,317.5469 232.6266,318.2969 Q232.1344,319.0469 232.1344,320.0781 L232.1344,321.1719 Q232.1344,322.4063 233.025,323.2266 Q233.9156,324.0469 235.5094,324.0469 Q236.4469,324.0469 237.1031,323.7969 Q237.4938,323.6406 237.9156,323.2031 Q238.1813,322.9375 238.3297,322.8594 Q238.4781,322.7813 238.6813,322.7813 Q239.0094,322.7813 239.2672,323.0391 Q239.525,323.2969 239.525,323.6406 Q239.525,323.9844 239.1813,324.3906 Q238.6813,324.9688 237.8844,325.2969 Q236.8063,325.75 235.5094,325.75 Q233.9938,325.75 232.7906,325.125 Q231.8063,324.625 231.1188,323.5547 Q230.4313,322.4844 230.4313,321.2031 L230.4313,320.0469 Q230.4313,318.7188 231.0484,317.5703 Q231.6656,316.4219 232.7594,315.8047 Q233.8531,315.1875 235.0875,315.1875 Q235.8219,315.1875 236.4703,315.3516 Q237.1188,315.5156 237.6656,315.875 Z "/><text fill="#000000" font-family="sans-serif" font-size="12" lengthAdjust="spacingAndGlyphs" textLength="96" x="253.1" y="324.9102">ConcreteFactory1</text><line style="stroke: #000000; stroke-width: 1.5;" x1="202" x2="370" y1="336" y2="336"/><line style="stroke: #000000; stroke-width: 1.5;" x1="202" x2="370" y1="344" y2="344"/><ellipse cx="212" cy="355" fill="#84BE84" rx="3" ry="3" style="stroke: #038048; stroke-width: 1.0;"/><text fill="#000000" font-family="sans-serif" font-size="11" lengthAdjust="spacingAndGlyphs" textLength="144" x="221" y="359.4189">createProductA() : ProductA1</text><ellipse cx="212" cy="368.8359" fill="#84BE84" rx="3" ry="3" style="stroke: #038048; stroke-width: 1.0;"/><text fill="#000000" font-family="sans-serif" font-size="11" lengthAdjust="spacingAndGlyphs" textLength="142" x="221" y="373.2549">createProductB() : ProductB1</text><!--class ConcreteFactory2--><rect fill="#FFFFFF" filter="url(#f3b64nfssqd53)" height="75.6719" id="ConcreteFactory2" style="stroke: #000000; stroke-width: 1.5;" width="170" x="406" y="304"/><ellipse cx="439.9" cy="320" fill="#ADD1B2" rx="11" ry="11" style="stroke: #000000; stroke-width: 1.0;"/><path d="M442.6656,315.875 Q442.8219,315.6563 443.0094,315.5469 Q443.1969,315.4375 443.4156,315.4375 Q443.7906,315.4375 444.025,315.6953 Q444.2594,315.9531 444.2594,316.5625 L444.2594,318.0156 Q444.2594,318.625 444.025,318.8906 Q443.7906,319.1563 443.4156,319.1563 Q443.0719,319.1563 442.8688,318.9531 Q442.6656,318.7656 442.5563,318.25 Q442.5094,317.8906 442.3219,317.7031 Q441.9938,317.3281 441.3844,317.1094 Q440.775,316.8906 440.15,316.8906 Q439.3844,316.8906 438.7516,317.2188 Q438.1188,317.5469 437.6266,318.2969 Q437.1344,319.0469 437.1344,320.0781 L437.1344,321.1719 Q437.1344,322.4063 438.025,323.2266 Q438.9156,324.0469 440.5094,324.0469 Q441.4469,324.0469 442.1031,323.7969 Q442.4938,323.6406 442.9156,323.2031 Q443.1813,322.9375 443.3297,322.8594 Q443.4781,322.7813 443.6813,322.7813 Q444.0094,322.7813 444.2672,323.0391 Q444.525,323.2969 444.525,323.6406 Q444.525,323.9844 444.1813,324.3906 Q443.6813,324.9688 442.8844,325.2969 Q441.8063,325.75 440.5094,325.75 Q438.9938,325.75 437.7906,325.125 Q436.8063,324.625 436.1188,323.5547 Q435.4313,322.4844 435.4313,321.2031 L435.4313,320.0469 Q435.4313,318.7188 436.0484,317.5703 Q436.6656,316.4219 437.7594,315.8047 Q438.8531,315.1875 440.0875,315.1875 Q440.8219,315.1875 441.4703,315.3516 Q442.1188,315.5156 442.6656,315.875 Z "/><text fill="#000000" font-family="sans-serif" font-size="12" lengthAdjust="spacingAndGlyphs" textLength="96" x="458.1" y="324.9102">ConcreteFactory2</text><line style="stroke: #000000; stroke-width: 1.5;" x1="407" x2="575" y1="336" y2="336"/><line style="stroke: #000000; stroke-width: 1.5;" x1="407" x2="575" y1="344" y2="344"/><ellipse cx="417" cy="355" fill="#84BE84" rx="3" ry="3" style="stroke: #038048; stroke-width: 1.0;"/><text fill="#000000" font-family="sans-serif" font-size="11" lengthAdjust="spacingAndGlyphs" textLength="144" x="426" y="359.4189">createProductA() : ProductA2</text><ellipse cx="417" cy="368.8359" fill="#84BE84" rx="3" ry="3" style="stroke: #038048; stroke-width: 1.0;"/><text fill="#000000" font-family="sans-serif" font-size="11" lengthAdjust="spacingAndGlyphs" textLength="142" x="426" y="373.2549">createProductB() : ProductB2</text><!--reverse link AbstractFactory to ConcreteFactory1--><path d="M322.258,262.635 C315.825,276.539 309.081,291.115 303.178,303.874 " fill="none" id="AbstractFactory&lt;-ConcreteFactory1" style="stroke: #000000; stroke-width: 1.0;"/><polygon fill="none" points="315.978,259.538,330.73,244.326,328.684,265.417,315.978,259.538" style="stroke: #000000; stroke-width: 1.0;"/><!--reverse link AbstractFactory to ConcreteFactory2--><path d="M402.845,258.393 C419.007,273.538 436.372,289.81 451.38,303.874 " fill="none" id="AbstractFactory&lt;-ConcreteFactory2" style="stroke: #000000; stroke-width: 1.0;"/><polygon fill="none" points="397.641,263.11,387.833,244.326,407.214,252.894,397.641,263.11" style="stroke: #000000; stroke-width: 1.0;"/><!--reverse link AbstractProductA to ProductA1--><path d="M118.73,384.824 C126.125,403.313 134.538,424.3454 140.774,439.9338 " fill="none" id="AbstractProductA&lt;-ProductA1" style="stroke: #000000; stroke-width: 1.0;"/><polygon fill="none" points="112.183,387.307,111.255,366.137,125.182,382.107,112.183,387.307" style="stroke: #000000; stroke-width: 1.0;"/><!--reverse link AbstractProductA to ProductA2--><path d="M162.1,375.782 C199.373,396.113 246.345,421.7335 279.712,439.9338 " fill="none" id="AbstractProductA&lt;-ProductA2" style="stroke: #000000; stroke-width: 1.0;"/><polygon fill="none" points="158.624,381.86,144.418,366.137,165.328,369.569,158.624,381.86" style="stroke: #000000; stroke-width: 1.0;"/><!--reverse link AbstractProductB to ProductB1--><path d="M614.9,375.782 C577.627,396.113 530.655,421.7335 497.288,439.9338 " fill="none" id="AbstractProductB&lt;-ProductB1" style="stroke: #000000; stroke-width: 1.0;"/><polygon fill="none" points="611.672,369.569,632.582,366.137,618.376,381.86,611.672,369.569" style="stroke: #000000; stroke-width: 1.0;"/><!--reverse link AbstractProductB to ProductB2--><path d="M644.957,382.187 C630.313,401.287 613.207,423.5991 600.684,439.9338 " fill="none" id="AbstractProductB&lt;-ProductB2" style="stroke: #000000; stroke-width: 1.0;"/><polygon fill="none" points="639.538,377.75,657.261,366.137,650.648,386.268,639.538,377.75" style="stroke: #000000; stroke-width: 1.0;"/><!--link ConcreteFactory1 to ProductB1--><path d="M338.546,380.311 C364.361,398.641 394.842,420.2839 418.143,436.8292 " fill="none" id="ConcreteFactory1-&gt;ProductB1" style="stroke: #000000; stroke-width: 1.0; stroke-dasharray: 7.0,7.0;"/><polygon fill="#000000" points="422.407,439.8572,417.3858,431.3844,418.3306,436.9618,412.7532,437.9066,422.407,439.8572" style="stroke: #000000; stroke-width: 1.0;"/><!--link ConcreteFactory1 to ProductA1--><path d="M243.714,380.311 C223.271,398.349 199.192,419.595 180.561,436.0342 " fill="none" id="ConcreteFactory1-&gt;ProductA1" style="stroke: #000000; stroke-width: 1.0; stroke-dasharray: 7.0,7.0;"/><polygon fill="#000000" points="176.431,439.6782,185.8265,436.7244,180.1807,436.3707,180.5345,430.7249,176.431,439.6782" style="stroke: #000000; stroke-width: 1.0;"/><!--link ConcreteFactory2 to ProductB2--><path d="M519.605,380.311 C533.318,398.197 549.449,419.238 562.008,435.6188 " fill="none" id="ConcreteFactory2-&gt;ProductB2" style="stroke: #000000; stroke-width: 1.0; stroke-dasharray: 7.0,7.0;"/><polygon fill="#000000" points="565.12,439.6782,562.8192,430.1019,562.0781,435.71,556.47,434.9689,565.12,439.6782" style="stroke: #000000; stroke-width: 1.0;"/><!--link ConcreteFactory2 to ProductA2--><path d="M438.454,380.311 C412.639,398.641 382.158,420.2839 358.857,436.8292 " fill="none" id="ConcreteFactory2-&gt;ProductA2" style="stroke: #000000; stroke-width: 1.0; stroke-dasharray: 7.0,7.0;"/><polygon fill="#000000" points="354.593,439.8572,364.2468,437.9066,358.6694,436.9618,359.6142,431.3844,354.593,439.8572" style="stroke: #000000; stroke-width: 1.0;"/><!--link Client to AbstractFactory--><path d="M348,108.137 C348,123.576 348,144.332 348,162.669 " fill="none" id="Client-&gt;AbstractFactory" style="stroke: #000000; stroke-width: 1.0;"/><polygon fill="#000000" points="348,167.771,352,158.771,348,162.771,344,158.771,348,167.771" style="stroke: #000000; stroke-width: 1.0;"/><!--link Client to AbstractProductA--><path d="M315.972,102.793 C290.209,118.042 253.983,141.669 227,168 C180.808,213.076 139.607,276.9 117.989,313.094 " fill="none" id="Client-&gt;AbstractProductA" style="stroke: #000000; stroke-width: 1.0;"/><polygon fill="#000000" points="115.197,317.797,123.2296,312.0981,117.7484,313.497,116.3496,308.0158,115.197,317.797" style="stroke: #000000; stroke-width: 1.0;"/><!--link Client to AbstractProductB--><path d="M380.188,105.844 C404.92,122.153 439.694,145.726 469,168 C533.575,217.079 605.342,279.188 644.824,314.059 " fill="none" id="Client-&gt;AbstractProductB" style="stroke: #000000; stroke-width: 1.0;"/><polygon fill="#000000" points="649.009,317.761,644.9174,308.8023,645.2637,314.4485,639.6174,314.7947,649.009,317.761" style="stroke: #000000; stroke-width: 1.0;"/><!--
@startuml
package "AbstractFactoryExample" {
    skinparam class {
	BackgroundColor White
	ArrowColor Black
	BorderColor Black
    }

    class Client {

    }

    interface AbstractProductA {

    }

    interface AbstractProductB {

    }

    interface AbstractFactory {
        +createProductA() : AbstractProductA
        +createProductB() : AbstractProductB
    }

    class ProductA1 {

    }

    class ProductA2 {
        
    }

    class ProductB1 {
        
    }

    class ProductB2 {
        
    }

    class ConcreteFactory1 {
        +createProductA() : ProductA1
        +createProductB() : ProductB1
    }

    class ConcreteFactory2 {
        +createProductA() : ProductA2
        +createProductB() : ProductB2
    }

    AbstractFactory <|- - ConcreteFactory1
    AbstractFactory <|- - ConcreteFactory2
    AbstractProductA <|- - ProductA1
    AbstractProductA <|- - ProductA2
    AbstractProductB <|- - ProductB1
    AbstractProductB <|- - ProductB2

    ConcreteFactory1 ..> ProductB1
    ConcreteFactory1 ..> ProductA1
    ConcreteFactory2 ..> ProductB2
    ConcreteFactory2 ..> ProductA2

    Client - -> AbstractFactory
    Client - -> AbstractProductA
    Client - -> AbstractProductB
} 
@enduml

PlantUML version 1.2019.09(Mon Aug 26 21:19:51 YEKT 2019)
(GPL source distribution)
Java Runtime: Java(TM) SE Runtime Environment
JVM: Java HotSpot(TM) 64-Bit Server VM
Java Version: 1.8.0_241-b07
Operating System: Windows 10
OS Version: 10.0
Default Encoding: Cp1251
Language: en
Country: US
--></g></svg>