<?xml version="1.0" encoding="UTF-8" standalone="no"?><svg xmlns="http://www.w3.org/2000/svg" xmlns:xlink="http://www.w3.org/1999/xlink" contentScriptType="application/ecmascript" contentStyleType="text/css" height="272px" preserveAspectRatio="none" style="width:216px;height:272px;" version="1.1" viewBox="0 0 216 272" width="216px" zoomAndPan="magnify"><defs><filter height="300%" id="feopbhj3vb1q8" width="300%" x="-1" y="-1"><feGaussianBlur result="blurOut" stdDeviation="2.0"/><feColorMatrix in="blurOut" result="blurOut2" type="matrix" values="0 0 0 0 0 0 0 0 0 0 0 0 0 0 0 0 0 0 .4 0"/><feOffset dx="4.0" dy="4.0" in="blurOut2" result="blurOut3"/><feBlend in="SourceGraphic" in2="blurOut3" mode="normal"/></filter></defs><g><!--cluster SingletonExample--><polygon fill="#FFFFFF" filter="url(#feopbhj3vb1q8)" points="22,24,154,24,161,47.6094,194,47.6094,194,260,22,260,22,24" style="stroke: #000000; stroke-width: 1.5;"/><line style="stroke: #000000; stroke-width: 1.5;" x1="22" x2="161" y1="47.6094" y2="47.6094"/><text fill="#000000" font-family="sans-serif" font-size="14" font-weight="bold" lengthAdjust="spacingAndGlyphs" textLength="126" x="26" y="40.5332">SingletonExample</text><!--class Client--><rect fill="#FFFFFF" filter="url(#feopbhj3vb1q8)" height="48" id="Client" style="stroke: #000000; stroke-width: 1.5;" width="64" x="76" y="60"/><ellipse cx="91" cy="76" fill="#ADD1B2" rx="11" ry="11" style="stroke: #000000; stroke-width: 1.0;"/><path d="M93.7656,71.875 Q93.9219,71.6563 94.1094,71.5469 Q94.2969,71.4375 94.5156,71.4375 Q94.8906,71.4375 95.125,71.6953 Q95.3594,71.9531 95.3594,72.5625 L95.3594,74.0156 Q95.3594,74.625 95.125,74.8906 Q94.8906,75.1563 94.5156,75.1563 Q94.1719,75.1563 93.9688,74.9531 Q93.7656,74.7656 93.6563,74.25 Q93.6094,73.8906 93.4219,73.7031 Q93.0938,73.3281 92.4844,73.1094 Q91.875,72.8906 91.25,72.8906 Q90.4844,72.8906 89.8516,73.2188 Q89.2188,73.5469 88.7266,74.2969 Q88.2344,75.0469 88.2344,76.0781 L88.2344,77.1719 Q88.2344,78.4063 89.125,79.2266 Q90.0156,80.0469 91.6094,80.0469 Q92.5469,80.0469 93.2031,79.7969 Q93.5938,79.6406 94.0156,79.2031 Q94.2813,78.9375 94.4297,78.8594 Q94.5781,78.7813 94.7813,78.7813 Q95.1094,78.7813 95.3672,79.0391 Q95.625,79.2969 95.625,79.6406 Q95.625,79.9844 95.2813,80.3906 Q94.7813,80.9688 93.9844,81.2969 Q92.9063,81.75 91.6094,81.75 Q90.0938,81.75 88.8906,81.125 Q87.9063,80.625 87.2188,79.5547 Q86.5313,78.4844 86.5313,77.2031 L86.5313,76.0469 Q86.5313,74.7188 87.1484,73.5703 Q87.7656,72.4219 88.8594,71.8047 Q89.9531,71.1875 91.1875,71.1875 Q91.9219,71.1875 92.5703,71.3516 Q93.2188,71.5156 93.7656,71.875 Z "/><text fill="#000000" font-family="sans-serif" font-size="12" lengthAdjust="spacingAndGlyphs" textLength="32" x="105" y="80.9102">Client</text><line style="stroke: #000000; stroke-width: 1.5;" x1="77" x2="139" y1="92" y2="92"/><line style="stroke: #000000; stroke-width: 1.5;" x1="77" x2="139" y1="100" y2="100"/><!--class Singleton--><rect fill="#FFFFFF" filter="url(#feopbhj3vb1q8)" height="75.6719" id="Singleton" style="stroke: #000000; stroke-width: 1.5;" width="140" x="38" y="168"/><ellipse cx="78.2" cy="184" fill="#ADD1B2" rx="11" ry="11" style="stroke: #000000; stroke-width: 1.0;"/><path d="M80.9656,179.875 Q81.1219,179.6563 81.3094,179.5469 Q81.4969,179.4375 81.7156,179.4375 Q82.0906,179.4375 82.325,179.6953 Q82.5594,179.9531 82.5594,180.5625 L82.5594,182.0156 Q82.5594,182.625 82.325,182.8906 Q82.0906,183.1563 81.7156,183.1563 Q81.3719,183.1563 81.1688,182.9531 Q80.9656,182.7656 80.8563,182.25 Q80.8094,181.8906 80.6219,181.7031 Q80.2938,181.3281 79.6844,181.1094 Q79.075,180.8906 78.45,180.8906 Q77.6844,180.8906 77.0516,181.2188 Q76.4188,181.5469 75.9266,182.2969 Q75.4344,183.0469 75.4344,184.0781 L75.4344,185.1719 Q75.4344,186.4063 76.325,187.2266 Q77.2156,188.0469 78.8094,188.0469 Q79.7469,188.0469 80.4031,187.7969 Q80.7938,187.6406 81.2156,187.2031 Q81.4813,186.9375 81.6297,186.8594 Q81.7781,186.7813 81.9813,186.7813 Q82.3094,186.7813 82.5672,187.0391 Q82.825,187.2969 82.825,187.6406 Q82.825,187.9844 82.4813,188.3906 Q81.9813,188.9688 81.1844,189.2969 Q80.1063,189.75 78.8094,189.75 Q77.2938,189.75 76.0906,189.125 Q75.1063,188.625 74.4188,187.5547 Q73.7313,186.4844 73.7313,185.2031 L73.7313,184.0469 Q73.7313,182.7188 74.3484,181.5703 Q74.9656,180.4219 76.0594,179.8047 Q77.1531,179.1875 78.3875,179.1875 Q79.1219,179.1875 79.7703,179.3516 Q80.4188,179.5156 80.9656,179.875 Z "/><text fill="#000000" font-family="sans-serif" font-size="12" lengthAdjust="spacingAndGlyphs" textLength="52" x="97.8" y="188.9102">Singleton</text><line style="stroke: #000000; stroke-width: 1.5;" x1="39" x2="177" y1="200" y2="200"/><rect fill="none" height="6" style="stroke: #C82930; stroke-width: 1.0;" width="6" x="46" y="208"/><text fill="#000000" font-family="sans-serif" font-size="11" lengthAdjust="spacingAndGlyphs" textLength="91" x="58" y="215.4189">instance: Singleton</text><line style="stroke: #000000; stroke-width: 1.5;" x1="39" x2="177" y1="221.8359" y2="221.8359"/><ellipse cx="49" cy="232.8359" fill="#84BE84" rx="3" ry="3" style="stroke: #038048; stroke-width: 1.0;"/><text fill="#000000" font-family="sans-serif" font-size="11" lengthAdjust="spacingAndGlyphs" textLength="114" x="58" y="237.2549">getInstance(): Singleton</text><!--link Client to Singleton--><path d="M108,108.137 C108,123.576 108,144.332 108,162.669 " fill="none" id="Client-&gt;Singleton" style="stroke: #000000; stroke-width: 1.0;"/><polygon fill="#000000" points="108,167.771,112,158.771,108,162.771,104,158.771,108,167.771" style="stroke: #000000; stroke-width: 1.0;"/><!--
@startuml
package "SingletonExample" {
    skinparam class {
	BackgroundColor White
	ArrowColor Black
	BorderColor Black
    }

    class Client {

    }

    class Singleton {
        -instance: Singleton
        +getInstance(): Singleton
    }

    Client - -> Singleton
} 
@enduml

PlantUML version 1.2019.09(Mon Aug 26 21:19:51 YEKT 2019)
(GPL source distribution)
Java Runtime: Java(TM) SE Runtime Environment
JVM: Java HotSpot(TM) 64-Bit Server VM
Java Version: 1.8.0_241-b07
Operating System: Windows 10
OS Version: 10.0
Default Encoding: Cp1251
Language: en
Country: US
--></g></svg>