<?xml version="1.0" encoding="UTF-8" standalone="no"?><svg xmlns="http://www.w3.org/2000/svg" xmlns:xlink="http://www.w3.org/1999/xlink" contentScriptType="application/ecmascript" contentStyleType="text/css" height="535px" preserveAspectRatio="none" style="width:623px;height:535px;" version="1.1" viewBox="0 0 623 535" width="623px" zoomAndPan="magnify"><defs><filter height="300%" id="f1201ek59jmbrq" width="300%" x="-1" y="-1"><feGaussianBlur result="blurOut" stdDeviation="2.0"/><feColorMatrix in="blurOut" result="blurOut2" type="matrix" values="0 0 0 0 0 0 0 0 0 0 0 0 0 0 0 0 0 0 .4 0"/><feOffset dx="4.0" dy="4.0" in="blurOut2" result="blurOut3"/><feBlend in="SourceGraphic" in2="blurOut3" mode="normal"/></filter></defs><g><!--cluster SmartHome--><polygon fill="#FFFFFF" filter="url(#f1201ek59jmbrq)" points="22,24,119,24,126,46.2969,601,46.2969,601,523,22,523,22,24" style="stroke: #000000; stroke-width: 1.5;"/><line style="stroke: #000000; stroke-width: 1.5;" x1="22" x2="126" y1="46.2969" y2="46.2969"/><text fill="#000000" font-family="sans-serif" font-size="14" font-weight="bold" lengthAdjust="spacingAndGlyphs" textLength="91" x="26" y="38.9951">SmartHome</text><!--class Client--><rect fill="#FFFFFF" filter="url(#f1201ek59jmbrq)" height="48" id="Client" style="stroke: #000000; stroke-width: 1.5;" width="67" x="319.5" y="59"/><ellipse cx="334.5" cy="75" fill="#ADD1B2" rx="11" ry="11" style="stroke: #000000; stroke-width: 1.0;"/><path d="M337.4688,80.6406 Q336.8906,80.9375 336.25,81.0781 Q335.6094,81.2344 334.9063,81.2344 Q332.4063,81.2344 331.0781,79.5938 Q329.7656,77.9375 329.7656,74.8125 Q329.7656,71.6875 331.0781,70.0313 Q332.4063,68.375 334.9063,68.375 Q335.6094,68.375 336.25,68.5313 Q336.9063,68.6875 337.4688,68.9844 L337.4688,71.7031 Q336.8438,71.125 336.25,70.8594 Q335.6563,70.5781 335.0313,70.5781 Q333.6875,70.5781 333,71.6563 Q332.3125,72.7188 332.3125,74.8125 Q332.3125,76.9063 333,77.9844 Q333.6875,79.0469 335.0313,79.0469 Q335.6563,79.0469 336.25,78.7813 Q336.8438,78.5 337.4688,77.9219 L337.4688,80.6406 Z "/><text fill="#000000" font-family="sans-serif" font-size="12" lengthAdjust="spacingAndGlyphs" textLength="35" x="348.5" y="79.1543">Client</text><line style="stroke: #000000; stroke-width: 1.5;" x1="320.5" x2="385.5" y1="91" y2="91"/><line style="stroke: #000000; stroke-width: 1.5;" x1="320.5" x2="385.5" y1="99" y2="99"/><!--class SmartHomeComponent--><rect fill="#FFFFFF" filter="url(#f1201ek59jmbrq)" height="86.4141" id="SmartHomeComponent" style="stroke: #000000; stroke-width: 1.5;" width="177" x="264.5" y="167"/><ellipse cx="279.5" cy="183" fill="#A9DCDF" rx="11" ry="11" style="stroke: #000000; stroke-width: 1.0;"/><path d="M279.6094,178.3438 L278.4531,183.4219 L280.7813,183.4219 L279.6094,178.3438 Z M278.125,176.1094 L281.1094,176.1094 L284.4688,188.5 L282.0156,188.5 L281.25,185.4375 L277.9688,185.4375 L277.2188,188.5 L274.7813,188.5 L278.125,176.1094 Z "/><text fill="#000000" font-family="sans-serif" font-size="12" font-style="italic" lengthAdjust="spacingAndGlyphs" textLength="145" x="293.5" y="187.1543">SmartHomeComponent</text><line style="stroke: #000000; stroke-width: 1.5;" x1="265.5" x2="440.5" y1="199" y2="199"/><rect fill="none" height="6" style="stroke: #C82930; stroke-width: 1.0;" width="6" x="272.5" y="207"/><text fill="#000000" font-family="sans-serif" font-size="11" lengthAdjust="spacingAndGlyphs" textLength="98" x="284.5" y="213.2104">Enabled: boolean</text><ellipse cx="275.5" cy="222.8047" fill="none" rx="3" ry="3" style="stroke: #038048; stroke-width: 1.0;"/><text fill="#000000" font-family="sans-serif" font-size="11" lengthAdjust="spacingAndGlyphs" textLength="74" x="284.5" y="226.0151">Name: string</text><line style="stroke: #000000; stroke-width: 1.5;" x1="265.5" x2="440.5" y1="232.6094" y2="232.6094"/><ellipse cx="275.5" cy="243.6094" fill="#84BE84" rx="3" ry="3" style="stroke: #038048; stroke-width: 1.0;"/><text fill="#000000" font-family="sans-serif" font-size="11" lengthAdjust="spacingAndGlyphs" textLength="72" x="284.5" y="246.8198">SetEnabled()</text><!--class SmartFloor--><rect fill="#FFFFFF" filter="url(#f1201ek59jmbrq)" height="48" id="SmartFloor" style="stroke: #000000; stroke-width: 1.5;" width="100" x="38" y="313"/><ellipse cx="53" cy="329" fill="#ADD1B2" rx="11" ry="11" style="stroke: #000000; stroke-width: 1.0;"/><path d="M55.9688,334.6406 Q55.3906,334.9375 54.75,335.0781 Q54.1094,335.2344 53.4063,335.2344 Q50.9063,335.2344 49.5781,333.5938 Q48.2656,331.9375 48.2656,328.8125 Q48.2656,325.6875 49.5781,324.0313 Q50.9063,322.375 53.4063,322.375 Q54.1094,322.375 54.75,322.5313 Q55.4063,322.6875 55.9688,322.9844 L55.9688,325.7031 Q55.3438,325.125 54.75,324.8594 Q54.1563,324.5781 53.5313,324.5781 Q52.1875,324.5781 51.5,325.6563 Q50.8125,326.7188 50.8125,328.8125 Q50.8125,330.9063 51.5,331.9844 Q52.1875,333.0469 53.5313,333.0469 Q54.1563,333.0469 54.75,332.7813 Q55.3438,332.5 55.9688,331.9219 L55.9688,334.6406 Z "/><text fill="#000000" font-family="sans-serif" font-size="12" lengthAdjust="spacingAndGlyphs" textLength="68" x="67" y="333.1543">SmartFloor</text><line style="stroke: #000000; stroke-width: 1.5;" x1="39" x2="137" y1="345" y2="345"/><line style="stroke: #000000; stroke-width: 1.5;" x1="39" x2="137" y1="353" y2="353"/><!--class SmartTV--><rect fill="#FFFFFF" filter="url(#f1201ek59jmbrq)" height="48" id="SmartTV" style="stroke: #000000; stroke-width: 1.5;" width="84" x="173" y="313"/><ellipse cx="188" cy="329" fill="#ADD1B2" rx="11" ry="11" style="stroke: #000000; stroke-width: 1.0;"/><path d="M190.9688,334.6406 Q190.3906,334.9375 189.75,335.0781 Q189.1094,335.2344 188.4063,335.2344 Q185.9063,335.2344 184.5781,333.5938 Q183.2656,331.9375 183.2656,328.8125 Q183.2656,325.6875 184.5781,324.0313 Q185.9063,322.375 188.4063,322.375 Q189.1094,322.375 189.75,322.5313 Q190.4063,322.6875 190.9688,322.9844 L190.9688,325.7031 Q190.3438,325.125 189.75,324.8594 Q189.1563,324.5781 188.5313,324.5781 Q187.1875,324.5781 186.5,325.6563 Q185.8125,326.7188 185.8125,328.8125 Q185.8125,330.9063 186.5,331.9844 Q187.1875,333.0469 188.5313,333.0469 Q189.1563,333.0469 189.75,332.7813 Q190.3438,332.5 190.9688,331.9219 L190.9688,334.6406 Z "/><text fill="#000000" font-family="sans-serif" font-size="12" lengthAdjust="spacingAndGlyphs" textLength="52" x="202" y="333.1543">SmartTV</text><line style="stroke: #000000; stroke-width: 1.5;" x1="174" x2="256" y1="345" y2="345"/><line style="stroke: #000000; stroke-width: 1.5;" x1="174" x2="256" y1="353" y2="353"/><!--class SmartCurtains--><rect fill="#FFFFFF" filter="url(#f1201ek59jmbrq)" height="48" id="SmartCurtains" style="stroke: #000000; stroke-width: 1.5;" width="121" x="292.5" y="313"/><ellipse cx="307.5" cy="329" fill="#ADD1B2" rx="11" ry="11" style="stroke: #000000; stroke-width: 1.0;"/><path d="M310.4688,334.6406 Q309.8906,334.9375 309.25,335.0781 Q308.6094,335.2344 307.9063,335.2344 Q305.4063,335.2344 304.0781,333.5938 Q302.7656,331.9375 302.7656,328.8125 Q302.7656,325.6875 304.0781,324.0313 Q305.4063,322.375 307.9063,322.375 Q308.6094,322.375 309.25,322.5313 Q309.9063,322.6875 310.4688,322.9844 L310.4688,325.7031 Q309.8438,325.125 309.25,324.8594 Q308.6563,324.5781 308.0313,324.5781 Q306.6875,324.5781 306,325.6563 Q305.3125,326.7188 305.3125,328.8125 Q305.3125,330.9063 306,331.9844 Q306.6875,333.0469 308.0313,333.0469 Q308.6563,333.0469 309.25,332.7813 Q309.8438,332.5 310.4688,331.9219 L310.4688,334.6406 Z "/><text fill="#000000" font-family="sans-serif" font-size="12" lengthAdjust="spacingAndGlyphs" textLength="89" x="321.5" y="333.1543">SmartCurtains</text><line style="stroke: #000000; stroke-width: 1.5;" x1="293.5" x2="412.5" y1="345" y2="345"/><line style="stroke: #000000; stroke-width: 1.5;" x1="293.5" x2="412.5" y1="353" y2="353"/><!--class SmartLight--><rect fill="#FFFFFF" filter="url(#f1201ek59jmbrq)" height="48" id="SmartLight" style="stroke: #000000; stroke-width: 1.5;" width="99" x="448.5" y="313"/><ellipse cx="463.5" cy="329" fill="#ADD1B2" rx="11" ry="11" style="stroke: #000000; stroke-width: 1.0;"/><path d="M466.4688,334.6406 Q465.8906,334.9375 465.25,335.0781 Q464.6094,335.2344 463.9063,335.2344 Q461.4063,335.2344 460.0781,333.5938 Q458.7656,331.9375 458.7656,328.8125 Q458.7656,325.6875 460.0781,324.0313 Q461.4063,322.375 463.9063,322.375 Q464.6094,322.375 465.25,322.5313 Q465.9063,322.6875 466.4688,322.9844 L466.4688,325.7031 Q465.8438,325.125 465.25,324.8594 Q464.6563,324.5781 464.0313,324.5781 Q462.6875,324.5781 462,325.6563 Q461.3125,326.7188 461.3125,328.8125 Q461.3125,330.9063 462,331.9844 Q462.6875,333.0469 464.0313,333.0469 Q464.6563,333.0469 465.25,332.7813 Q465.8438,332.5 466.4688,331.9219 L466.4688,334.6406 Z "/><text fill="#000000" font-family="sans-serif" font-size="12" lengthAdjust="spacingAndGlyphs" textLength="67" x="477.5" y="333.1543">SmartLight</text><line style="stroke: #000000; stroke-width: 1.5;" x1="449.5" x2="546.5" y1="345" y2="345"/><line style="stroke: #000000; stroke-width: 1.5;" x1="449.5" x2="546.5" y1="353" y2="353"/><!--class SmartHomeScenario--><rect fill="#FFFFFF" filter="url(#f1201ek59jmbrq)" height="86.4141" id="SmartHomeScenario" style="stroke: #000000; stroke-width: 1.5;" width="222" x="242" y="421"/><ellipse cx="284.9" cy="437" fill="#ADD1B2" rx="11" ry="11" style="stroke: #000000; stroke-width: 1.0;"/><path d="M287.8688,442.6406 Q287.2906,442.9375 286.65,443.0781 Q286.0094,443.2344 285.3063,443.2344 Q282.8063,443.2344 281.4781,441.5938 Q280.1656,439.9375 280.1656,436.8125 Q280.1656,433.6875 281.4781,432.0313 Q282.8063,430.375 285.3063,430.375 Q286.0094,430.375 286.65,430.5313 Q287.3063,430.6875 287.8688,430.9844 L287.8688,433.7031 Q287.2438,433.125 286.65,432.8594 Q286.0563,432.5781 285.4313,432.5781 Q284.0875,432.5781 283.4,433.6563 Q282.7125,434.7188 282.7125,436.8125 Q282.7125,438.9063 283.4,439.9844 Q284.0875,441.0469 285.4313,441.0469 Q286.0563,441.0469 286.65,440.7813 Q287.2438,440.5 287.8688,439.9219 L287.8688,442.6406 Z "/><text fill="#000000" font-family="sans-serif" font-size="12" lengthAdjust="spacingAndGlyphs" textLength="128" x="305.1" y="441.1543">SmartHomeScenario</text><line style="stroke: #000000; stroke-width: 1.5;" x1="243" x2="463" y1="453" y2="453"/><rect fill="none" height="6" style="stroke: #C82930; stroke-width: 1.0;" width="6" x="250" y="461"/><text fill="#000000" font-family="sans-serif" font-size="11" lengthAdjust="spacingAndGlyphs" textLength="196" x="262" y="467.2104">Children: SmartHomeComponent[]</text><line style="stroke: #000000; stroke-width: 1.5;" x1="243" x2="463" y1="473.8047" y2="473.8047"/><ellipse cx="253" cy="484.8047" fill="#84BE84" rx="3" ry="3" style="stroke: #038048; stroke-width: 1.0;"/><text fill="#000000" font-family="sans-serif" font-size="11" lengthAdjust="spacingAndGlyphs" textLength="29" x="262" y="488.0151">Add()</text><ellipse cx="253" cy="497.6094" fill="#84BE84" rx="3" ry="3" style="stroke: #038048; stroke-width: 1.0;"/><text fill="#000000" font-family="sans-serif" font-size="11" lengthAdjust="spacingAndGlyphs" textLength="53" x="262" y="500.8198">Remove()</text><!--link Client to SmartHomeComponent--><path d="M353,107.22 C353,122.51 353,143.09 353,161.73 " fill="none" id="Client-&gt;SmartHomeComponent" style="stroke: #000000; stroke-width: 1.0;"/><polygon fill="#000000" points="353,166.94,357,157.94,353,161.94,349,157.94,353,166.94" style="stroke: #000000; stroke-width: 1.0;"/><!--link SmartHomeScenario to SmartHomeComponent--><path d="M464.28,435.97 C502.98,420.65 542.34,397.05 565,361 C599.27,306.48 529.32,266.11 460.76,241.06 " fill="none" id="SmartHomeScenario-&gt;SmartHomeComponent" style="stroke: #000000; stroke-width: 1.0;"/><polygon fill="none" points="458.16,247.57,441.55,234.41,462.74,234.34,458.16,247.57" style="stroke: #000000; stroke-width: 1.0;"/><!--reverse link SmartHomeComponent to SmartFloor--><path d="M246.14,261.4 C208.39,279.21 167.75,298.38 137.12,312.83 " fill="none" id="SmartHomeComponent&lt;-SmartFloor" style="stroke: #000000; stroke-width: 1.0;"/><polygon fill="none" points="243.32,255,264.39,252.8,249.29,267.66,243.32,255" style="stroke: #000000; stroke-width: 1.0;"/><!--reverse link SmartHomeComponent to SmartTV--><path d="M291.27,266.92 C273.48,283.03 255.05,299.73 240.75,312.67 " fill="none" id="SmartHomeComponent&lt;-SmartTV" style="stroke: #000000; stroke-width: 1.0;"/><polygon fill="none" points="286.76,261.56,306.28,253.32,296.16,271.93,286.76,261.56" style="stroke: #000000; stroke-width: 1.0;"/><!--reverse link SmartHomeComponent to SmartCurtains--><path d="M353,273.49 C353,287.49 353,301.48 353,312.67 " fill="none" id="SmartHomeComponent&lt;-SmartCurtains" style="stroke: #000000; stroke-width: 1.0;"/><polygon fill="none" points="346,273.32,353,253.32,360,273.32,346,273.32" style="stroke: #000000; stroke-width: 1.0;"/><!--reverse link SmartHomeComponent to SmartLight--><path d="M417.3,266.43 C436.16,282.69 455.77,299.6 470.94,312.67 " fill="none" id="SmartHomeComponent&lt;-SmartLight" style="stroke: #000000; stroke-width: 1.0;"/><polygon fill="none" points="412.67,271.68,402.09,253.32,421.81,261.08,412.67,271.68" style="stroke: #000000; stroke-width: 1.0;"/><!--link SmartFloor to SmartHomeScenario--><path d="M136.91,361.07 C172.43,377.83 221.49,400.97 263.89,420.97 " fill="none" id="SmartFloor-SmartHomeScenario" style="stroke: #000000; stroke-width: 1.0;"/><text fill="#000000" font-family="sans-serif" font-size="13" lengthAdjust="spacingAndGlyphs" textLength="8" x="140.4182" y="381.2437">1</text><text fill="#000000" font-family="sans-serif" font-size="13" lengthAdjust="spacingAndGlyphs" textLength="7" x="242.1303" y="409.9613">*</text><!--link SmartTV to SmartHomeScenario--><path d="M240.63,361.22 C259.11,377.95 284.55,401 306.56,420.94 " fill="none" id="SmartTV-SmartHomeScenario" style="stroke: #000000; stroke-width: 1.0;"/><text fill="#000000" font-family="sans-serif" font-size="13" lengthAdjust="spacingAndGlyphs" textLength="8" x="237.9023" y="381.0348">1</text><text fill="#000000" font-family="sans-serif" font-size="13" lengthAdjust="spacingAndGlyphs" textLength="7" x="291.6008" y="409.9265">*</text><!--link SmartCurtains to SmartHomeScenario--><path d="M353,361.22 C353,377.95 353,401 353,420.94 " fill="none" id="SmartCurtains-SmartHomeScenario" style="stroke: #000000; stroke-width: 1.0;"/><text fill="#000000" font-family="sans-serif" font-size="13" lengthAdjust="spacingAndGlyphs" textLength="8" x="344.025" y="381.0348">1</text><text fill="#000000" font-family="sans-serif" font-size="13" lengthAdjust="spacingAndGlyphs" textLength="7" x="345.4422" y="409.9265">*</text><!--link SmartLight to SmartHomeScenario--><path d="M471.07,361.22 C451.66,377.95 424.92,401 401.79,420.94 " fill="none" id="SmartLight-SmartHomeScenario" style="stroke: #000000; stroke-width: 1.0;"/><text fill="#000000" font-family="sans-serif" font-size="13" lengthAdjust="spacingAndGlyphs" textLength="8" x="455.5308" y="381.0348">1</text><text fill="#000000" font-family="sans-serif" font-size="13" lengthAdjust="spacingAndGlyphs" textLength="7" x="402.0081" y="409.9265">*</text><!--
@startuml
package "SmartHome" {
    skinparam class {
	BackgroundColor White
	ArrowColor Black
	BorderColor Black
    }

    class Client {

    }

    abstract class SmartHomeComponent {
        -Enabled: boolean
        +Name: string
        +SetEnabled()
    }

    class SmartFloor {

    }

    class SmartTV {

    }
    
    class SmartCurtains {

    }

    class SmartLight {

    }
    

    class SmartHomeScenario {
        -Children: SmartHomeComponent[]
        +Add()
        +Remove()
    }

    Client - -> SmartHomeComponent
    SmartHomeScenario - -|> SmartHomeComponent

    SmartFloor -up-|> SmartHomeComponent
    SmartTV -up-|> SmartHomeComponent
    SmartCurtains -up-|> SmartHomeComponent
    SmartLight -up-|> SmartHomeComponent

    SmartFloor "1" - - "*" SmartHomeScenario
    SmartTV "1" - - "*" SmartHomeScenario
    SmartCurtains "1" - - "*" SmartHomeScenario
    SmartLight "1" - - "*" SmartHomeScenario
  
} 
@enduml

PlantUML version 1.2019.09(Mon Aug 26 21:19:51 YEKT 2019)
(GPL source distribution)
Java Runtime: OpenJDK Runtime Environment
JVM: OpenJDK 64-Bit Server VM
Java Version: 1.8.0_242-b08
Operating System: Linux
OS Version: 5.5.2-arch2-2
Default Encoding: UTF-8
Language: en
Country: US
--></g></svg>