<?xml version="1.0" encoding="UTF-8" standalone="no"?><svg xmlns="http://www.w3.org/2000/svg" xmlns:xlink="http://www.w3.org/1999/xlink" contentScriptType="application/ecmascript" contentStyleType="text/css" height="282px" preserveAspectRatio="none" style="width:359px;height:282px;" version="1.1" viewBox="0 0 359 282" width="359px" zoomAndPan="magnify"><defs><filter height="300%" id="fjvigyjrhun7l" width="300%" x="-1" y="-1"><feGaussianBlur result="blurOut" stdDeviation="2.0"/><feColorMatrix in="blurOut" result="blurOut2" type="matrix" values="0 0 0 0 0 0 0 0 0 0 0 0 0 0 0 0 0 0 .4 0"/><feOffset dx="4.0" dy="4.0" in="blurOut2" result="blurOut3"/><feBlend in="SourceGraphic" in2="blurOut3" mode="normal"/></filter></defs><g><!--cluster ProxyExample--><polygon fill="#FFFFFF" filter="url(#fjvigyjrhun7l)" points="22,24,138,24,145,46.2969,337,46.2969,337,270,22,270,22,24" style="stroke: #000000; stroke-width: 1.5;"/><line style="stroke: #000000; stroke-width: 1.5;" x1="22" x2="145" y1="46.2969" y2="46.2969"/><text fill="#000000" font-family="sans-serif" font-size="14" font-weight="bold" lengthAdjust="spacingAndGlyphs" textLength="110" x="26" y="38.9951">ProxyExample</text><!--class Client--><rect fill="#FFFFFF" filter="url(#fjvigyjrhun7l)" height="48" id="Client" style="stroke: #000000; stroke-width: 1.5;" width="67" x="82.5" y="65.5"/><ellipse cx="97.5" cy="81.5" fill="#ADD1B2" rx="11" ry="11" style="stroke: #000000; stroke-width: 1.0;"/><path d="M100.4688,87.1406 Q99.8906,87.4375 99.25,87.5781 Q98.6094,87.7344 97.9063,87.7344 Q95.4063,87.7344 94.0781,86.0938 Q92.7656,84.4375 92.7656,81.3125 Q92.7656,78.1875 94.0781,76.5313 Q95.4063,74.875 97.9063,74.875 Q98.6094,74.875 99.25,75.0313 Q99.9063,75.1875 100.4688,75.4844 L100.4688,78.2031 Q99.8438,77.625 99.25,77.3594 Q98.6563,77.0781 98.0313,77.0781 Q96.6875,77.0781 96,78.1563 Q95.3125,79.2188 95.3125,81.3125 Q95.3125,83.4063 96,84.4844 Q96.6875,85.5469 98.0313,85.5469 Q98.6563,85.5469 99.25,85.2813 Q99.8438,85 100.4688,84.4219 L100.4688,87.1406 Z "/><text fill="#000000" font-family="sans-serif" font-size="12" lengthAdjust="spacingAndGlyphs" textLength="35" x="111.5" y="85.6543">Client</text><line style="stroke: #000000; stroke-width: 1.5;" x1="83.5" x2="148.5" y1="97.5" y2="97.5"/><line style="stroke: #000000; stroke-width: 1.5;" x1="83.5" x2="148.5" y1="105.5" y2="105.5"/><!--class Subject--><rect fill="#FFFFFF" filter="url(#fjvigyjrhun7l)" height="60.8047" id="Subject" style="stroke: #000000; stroke-width: 1.5;" width="79" x="184.5" y="59"/><ellipse cx="199.5" cy="75" fill="#B4A7E5" rx="11" ry="11" style="stroke: #000000; stroke-width: 1.0;"/><path d="M195.4219,70.7656 L195.4219,68.6094 L202.8125,68.6094 L202.8125,70.7656 L200.3438,70.7656 L200.3438,78.8438 L202.8125,78.8438 L202.8125,81 L195.4219,81 L195.4219,78.8438 L197.8906,78.8438 L197.8906,70.7656 L195.4219,70.7656 Z "/><text fill="#000000" font-family="sans-serif" font-size="12" font-style="italic" lengthAdjust="spacingAndGlyphs" textLength="47" x="213.5" y="79.1543">Subject</text><line style="stroke: #000000; stroke-width: 1.5;" x1="185.5" x2="262.5" y1="91" y2="91"/><line style="stroke: #000000; stroke-width: 1.5;" x1="185.5" x2="262.5" y1="99" y2="99"/><ellipse cx="195.5" cy="110" fill="#84BE84" rx="3" ry="3" style="stroke: #038048; stroke-width: 1.0;"/><text fill="#000000" font-family="sans-serif" font-size="11" lengthAdjust="spacingAndGlyphs" textLength="42" x="204.5" y="113.2104">Action()</text><!--class Proxy--><rect fill="#FFFFFF" filter="url(#fjvigyjrhun7l)" height="73.6094" id="Proxy" style="stroke: #000000; stroke-width: 1.5;" width="142" x="38" y="180"/><ellipse cx="88.25" cy="196" fill="#ADD1B2" rx="11" ry="11" style="stroke: #000000; stroke-width: 1.0;"/><path d="M91.2188,201.6406 Q90.6406,201.9375 90,202.0781 Q89.3594,202.2344 88.6563,202.2344 Q86.1563,202.2344 84.8281,200.5938 Q83.5156,198.9375 83.5156,195.8125 Q83.5156,192.6875 84.8281,191.0313 Q86.1563,189.375 88.6563,189.375 Q89.3594,189.375 90,189.5313 Q90.6563,189.6875 91.2188,189.9844 L91.2188,192.7031 Q90.5938,192.125 90,191.8594 Q89.4063,191.5781 88.7813,191.5781 Q87.4375,191.5781 86.75,192.6563 Q86.0625,193.7188 86.0625,195.8125 Q86.0625,197.9063 86.75,198.9844 Q87.4375,200.0469 88.7813,200.0469 Q89.4063,200.0469 90,199.7813 Q90.5938,199.5 91.2188,198.9219 L91.2188,201.6406 Z "/><text fill="#000000" font-family="sans-serif" font-size="12" lengthAdjust="spacingAndGlyphs" textLength="33" x="108.75" y="200.1543">Proxy</text><line style="stroke: #000000; stroke-width: 1.5;" x1="39" x2="179" y1="212" y2="212"/><rect fill="none" height="6" style="stroke: #C82930; stroke-width: 1.0;" width="6" x="46" y="220"/><text fill="#000000" font-family="sans-serif" font-size="11" lengthAdjust="spacingAndGlyphs" textLength="116" x="58" y="226.2104">Subject: RealSubject</text><line style="stroke: #000000; stroke-width: 1.5;" x1="39" x2="179" y1="232.8047" y2="232.8047"/><ellipse cx="49" cy="243.8047" fill="#84BE84" rx="3" ry="3" style="stroke: #038048; stroke-width: 1.0;"/><text fill="#000000" font-family="sans-serif" font-size="11" lengthAdjust="spacingAndGlyphs" textLength="42" x="58" y="247.0151">Action()</text><!--class RealSubject--><rect fill="#FFFFFF" filter="url(#fjvigyjrhun7l)" height="60.8047" id="RealSubject" style="stroke: #000000; stroke-width: 1.5;" width="106" x="215" y="186.5"/><ellipse cx="230" cy="202.5" fill="#ADD1B2" rx="11" ry="11" style="stroke: #000000; stroke-width: 1.0;"/><path d="M232.9688,208.1406 Q232.3906,208.4375 231.75,208.5781 Q231.1094,208.7344 230.4063,208.7344 Q227.9063,208.7344 226.5781,207.0938 Q225.2656,205.4375 225.2656,202.3125 Q225.2656,199.1875 226.5781,197.5313 Q227.9063,195.875 230.4063,195.875 Q231.1094,195.875 231.75,196.0313 Q232.4063,196.1875 232.9688,196.4844 L232.9688,199.2031 Q232.3438,198.625 231.75,198.3594 Q231.1563,198.0781 230.5313,198.0781 Q229.1875,198.0781 228.5,199.1563 Q227.8125,200.2188 227.8125,202.3125 Q227.8125,204.4063 228.5,205.4844 Q229.1875,206.5469 230.5313,206.5469 Q231.1563,206.5469 231.75,206.2813 Q232.3438,206 232.9688,205.4219 L232.9688,208.1406 Z "/><text fill="#000000" font-family="sans-serif" font-size="12" lengthAdjust="spacingAndGlyphs" textLength="74" x="244" y="206.6543">RealSubject</text><line style="stroke: #000000; stroke-width: 1.5;" x1="216" x2="320" y1="218.5" y2="218.5"/><line style="stroke: #000000; stroke-width: 1.5;" x1="216" x2="320" y1="226.5" y2="226.5"/><ellipse cx="226" cy="237.5" fill="#84BE84" rx="3" ry="3" style="stroke: #038048; stroke-width: 1.0;"/><text fill="#000000" font-family="sans-serif" font-size="11" lengthAdjust="spacingAndGlyphs" textLength="42" x="235" y="240.7104">Action()</text><!--link Client to Subject--><path d="M149.64,89.5 C151.12,89.5 152,89.5 152,89.5 C152,89.5 168.6,89.5 179.25,89.5 " fill="none" id="Client-&gt;Subject" style="stroke: #000000; stroke-width: 1.0;"/><polygon fill="#000000" points="184.42,89.5,175.42,85.5,179.42,89.5,175.42,93.5,184.42,89.5" style="stroke: #000000; stroke-width: 1.0;"/><!--reverse link Subject to RealSubject--><path d="M241.05,139.12 C246.65,155.1 252.7,172.36 257.65,186.47 " fill="none" id="Subject&lt;-RealSubject" style="stroke: #000000; stroke-width: 1.0; stroke-dasharray: 7.0,7.0;"/><polygon fill="none" points="234.44,141.43,234.43,120.24,247.65,136.8,234.44,141.43" style="stroke: #000000; stroke-width: 1.0;"/><!--reverse link Subject to Proxy--><path d="M182.91,135.34 C169.56,149.91 154.92,165.89 142.21,179.76 " fill="none" id="Subject&lt;-Proxy" style="stroke: #000000; stroke-width: 1.0; stroke-dasharray: 7.0,7.0;"/><polygon fill="none" points="178.07,130.26,196.75,120.24,188.4,139.72,178.07,130.26" style="stroke: #000000; stroke-width: 1.0;"/><!--link Proxy to RealSubject--><path d="M192.24,217 C192.24,217 199.27,217 201.98,217 " fill="none" id="Proxy-RealSubject" style="stroke: #000000; stroke-width: 1.0;"/><polygon fill="#000000" points="215.15,217,206.15,213,210.15,217,206.15,221,215.15,217" style="stroke: #000000; stroke-width: 1.0;"/><line style="stroke: #000000; stroke-width: 1.0;" x1="210.15" x2="202.15" y1="217" y2="217"/><polygon fill="#FFFFFF" points="180.24,217,186.24,221,192.24,217,186.24,213,180.24,217" style="stroke: #000000; stroke-width: 1.0;"/><!--
@startuml
package "ProxyExample" {
    skinparam class {
	BackgroundColor White
	ArrowColor Black
	BorderColor Black
    }
    skinparam linetype polyline

    class Client {
    }

    interface Subject {
        +Action()
    }

    class Proxy {
        -Subject: RealSubject
        +Action()
    }

    class RealSubject {
        +Action()
    }

    Client -right-> Subject
    RealSubject .up.|> Subject
    Proxy .up.|> Subject
    Proxy o-right-> RealSubject

} 
@enduml

PlantUML version 1.2019.09(Mon Aug 26 21:19:51 YEKT 2019)
(GPL source distribution)
Java Runtime: OpenJDK Runtime Environment
JVM: OpenJDK 64-Bit Server VM
Java Version: 1.8.0_242-b08
Operating System: Linux
OS Version: 5.5.7-arch1-1
Default Encoding: UTF-8
Language: en
Country: US
--></g></svg>