<?xml version="1.0" encoding="UTF-8" standalone="no"?><svg xmlns="http://www.w3.org/2000/svg" xmlns:xlink="http://www.w3.org/1999/xlink" contentScriptType="application/ecmascript" contentStyleType="text/css" height="314px" preserveAspectRatio="none" style="width:517px;height:314px;" version="1.1" viewBox="0 0 517 314" width="517px" zoomAndPan="magnify"><defs><filter height="300%" id="f1olrwxpzcla7" width="300%" x="-1" y="-1"><feGaussianBlur result="blurOut" stdDeviation="2.0"/><feColorMatrix in="blurOut" result="blurOut2" type="matrix" values="0 0 0 0 0 0 0 0 0 0 0 0 0 0 0 0 0 0 .4 0"/><feOffset dx="4.0" dy="4.0" in="blurOut2" result="blurOut3"/><feBlend in="SourceGraphic" in2="blurOut3" mode="normal"/></filter></defs><g><!--cluster BuilderExample--><polygon fill="#FFFFFF" filter="url(#f1olrwxpzcla7)" points="22,24,138,24,145,47.6094,495,47.6094,495,302,22,302,22,24" style="stroke: #000000; stroke-width: 1.5;"/><line style="stroke: #000000; stroke-width: 1.5;" x1="22" x2="145" y1="47.6094" y2="47.6094"/><text fill="#000000" font-family="sans-serif" font-size="14" font-weight="bold" lengthAdjust="spacingAndGlyphs" textLength="110" x="26" y="40.5332">BuilderExample</text><!--class Director--><rect fill="#FFFFFF" filter="url(#f1olrwxpzcla7)" height="75.6719" id="Director" style="stroke: #000000; stroke-width: 1.5;" width="107" x="204.5" y="60"/><ellipse cx="233.9" cy="76" fill="#ADD1B2" rx="11" ry="11" style="stroke: #000000; stroke-width: 1.0;"/><path d="M236.6656,71.875 Q236.8219,71.6563 237.0094,71.5469 Q237.1969,71.4375 237.4156,71.4375 Q237.7906,71.4375 238.025,71.6953 Q238.2594,71.9531 238.2594,72.5625 L238.2594,74.0156 Q238.2594,74.625 238.025,74.8906 Q237.7906,75.1563 237.4156,75.1563 Q237.0719,75.1563 236.8688,74.9531 Q236.6656,74.7656 236.5563,74.25 Q236.5094,73.8906 236.3219,73.7031 Q235.9938,73.3281 235.3844,73.1094 Q234.775,72.8906 234.15,72.8906 Q233.3844,72.8906 232.7516,73.2188 Q232.1188,73.5469 231.6266,74.2969 Q231.1344,75.0469 231.1344,76.0781 L231.1344,77.1719 Q231.1344,78.4063 232.025,79.2266 Q232.9156,80.0469 234.5094,80.0469 Q235.4469,80.0469 236.1031,79.7969 Q236.4938,79.6406 236.9156,79.2031 Q237.1813,78.9375 237.3297,78.8594 Q237.4781,78.7813 237.6813,78.7813 Q238.0094,78.7813 238.2672,79.0391 Q238.525,79.2969 238.525,79.6406 Q238.525,79.9844 238.1813,80.3906 Q237.6813,80.9688 236.8844,81.2969 Q235.8063,81.75 234.5094,81.75 Q232.9938,81.75 231.7906,81.125 Q230.8063,80.625 230.1188,79.5547 Q229.4313,78.4844 229.4313,77.2031 L229.4313,76.0469 Q229.4313,74.7188 230.0484,73.5703 Q230.6656,72.4219 231.7594,71.8047 Q232.8531,71.1875 234.0875,71.1875 Q234.8219,71.1875 235.4703,71.3516 Q236.1188,71.5156 236.6656,71.875 Z "/><text fill="#000000" font-family="sans-serif" font-size="12" lengthAdjust="spacingAndGlyphs" textLength="43" x="251.1" y="80.9102">Director</text><line style="stroke: #000000; stroke-width: 1.5;" x1="205.5" x2="310.5" y1="92" y2="92"/><rect fill="none" height="6" style="stroke: #C82930; stroke-width: 1.0;" width="6" x="212.5" y="100"/><text fill="#000000" font-family="sans-serif" font-size="11" lengthAdjust="spacingAndGlyphs" textLength="71" x="224.5" y="107.4189">builder: Builder</text><line style="stroke: #000000; stroke-width: 1.5;" x1="205.5" x2="310.5" y1="113.8359" y2="113.8359"/><ellipse cx="215.5" cy="124.8359" fill="#84BE84" rx="3" ry="3" style="stroke: #038048; stroke-width: 1.0;"/><text fill="#000000" font-family="sans-serif" font-size="11" lengthAdjust="spacingAndGlyphs" textLength="81" x="224.5" y="129.2549">Construct(): void</text><!--class Builder--><rect fill="#FFFFFF" filter="url(#f1olrwxpzcla7)" height="89.5078" id="Builder" style="stroke: #000000; stroke-width: 1.5;" width="113" x="201.5" y="196"/><ellipse cx="235.4" cy="212" fill="#B4A7E5" rx="11" ry="11" style="stroke: #000000; stroke-width: 1.0;"/><path d="M236.3531,208.6406 L236.3531,215.2969 L238.0719,215.2969 Q238.6813,215.2969 238.9469,215.5313 Q239.2125,215.7656 239.2125,216.1563 Q239.2125,216.5313 238.9469,216.7656 Q238.6813,217 238.0719,217 L232.9313,217 Q232.3219,217 232.0563,216.7656 Q231.7906,216.5313 231.7906,216.1406 Q231.7906,215.7656 232.0563,215.5313 Q232.3219,215.2969 232.9313,215.2969 L234.65,215.2969 L234.65,208.6406 L232.9313,208.6406 Q232.3219,208.6406 232.0563,208.4063 Q231.7906,208.1719 231.7906,207.7813 Q231.7906,207.4063 232.0563,207.1719 Q232.3219,206.9375 232.9313,206.9375 L238.0719,206.9375 Q238.6813,206.9375 238.9469,207.1719 Q239.2125,207.4063 239.2125,207.7813 Q239.2125,208.1719 238.9469,208.4063 Q238.6813,208.6406 238.0719,208.6406 L236.3531,208.6406 Z "/><text fill="#000000" font-family="sans-serif" font-size="12" font-style="italic" lengthAdjust="spacingAndGlyphs" textLength="39" x="253.6" y="216.9102">Builder</text><line style="stroke: #000000; stroke-width: 1.5;" x1="202.5" x2="313.5" y1="228" y2="228"/><line style="stroke: #000000; stroke-width: 1.5;" x1="202.5" x2="313.5" y1="236" y2="236"/><ellipse cx="212.5" cy="247" fill="#84BE84" rx="3" ry="3" style="stroke: #038048; stroke-width: 1.0;"/><text fill="#000000" font-family="sans-serif" font-size="11" lengthAdjust="spacingAndGlyphs" textLength="87" x="221.5" y="251.4189">BuildStepA(): void</text><ellipse cx="212.5" cy="260.8359" fill="#84BE84" rx="3" ry="3" style="stroke: #038048; stroke-width: 1.0;"/><text fill="#000000" font-family="sans-serif" font-size="11" lengthAdjust="spacingAndGlyphs" textLength="86" x="221.5" y="265.2549">BuildStepB(): void</text><ellipse cx="212.5" cy="274.6719" fill="#84BE84" rx="3" ry="3" style="stroke: #038048; stroke-width: 1.0;"/><text fill="#000000" font-family="sans-serif" font-size="11" lengthAdjust="spacingAndGlyphs" textLength="86" x="221.5" y="279.0908">BuildStepC(): void</text><!--class ProductA--><rect fill="#FFFFFF" filter="url(#f1olrwxpzcla7)" height="48" id="ProductA" style="stroke: #000000; stroke-width: 1.5;" width="81" x="372.5" y="217"/><ellipse cx="387.5" cy="233" fill="#ADD1B2" rx="11" ry="11" style="stroke: #000000; stroke-width: 1.0;"/><path d="M390.2656,228.875 Q390.4219,228.6563 390.6094,228.5469 Q390.7969,228.4375 391.0156,228.4375 Q391.3906,228.4375 391.625,228.6953 Q391.8594,228.9531 391.8594,229.5625 L391.8594,231.0156 Q391.8594,231.625 391.625,231.8906 Q391.3906,232.1563 391.0156,232.1563 Q390.6719,232.1563 390.4688,231.9531 Q390.2656,231.7656 390.1563,231.25 Q390.1094,230.8906 389.9219,230.7031 Q389.5938,230.3281 388.9844,230.1094 Q388.375,229.8906 387.75,229.8906 Q386.9844,229.8906 386.3516,230.2188 Q385.7188,230.5469 385.2266,231.2969 Q384.7344,232.0469 384.7344,233.0781 L384.7344,234.1719 Q384.7344,235.4063 385.625,236.2266 Q386.5156,237.0469 388.1094,237.0469 Q389.0469,237.0469 389.7031,236.7969 Q390.0938,236.6406 390.5156,236.2031 Q390.7813,235.9375 390.9297,235.8594 Q391.0781,235.7813 391.2813,235.7813 Q391.6094,235.7813 391.8672,236.0391 Q392.125,236.2969 392.125,236.6406 Q392.125,236.9844 391.7813,237.3906 Q391.2813,237.9688 390.4844,238.2969 Q389.4063,238.75 388.1094,238.75 Q386.5938,238.75 385.3906,238.125 Q384.4063,237.625 383.7188,236.5547 Q383.0313,235.4844 383.0313,234.2031 L383.0313,233.0469 Q383.0313,231.7188 383.6484,230.5703 Q384.2656,229.4219 385.3594,228.8047 Q386.4531,228.1875 387.6875,228.1875 Q388.4219,228.1875 389.0703,228.3516 Q389.7188,228.5156 390.2656,228.875 Z "/><text fill="#000000" font-family="sans-serif" font-size="12" lengthAdjust="spacingAndGlyphs" textLength="49" x="401.5" y="237.9102">ProductA</text><line style="stroke: #000000; stroke-width: 1.5;" x1="373.5" x2="452.5" y1="249" y2="249"/><line style="stroke: #000000; stroke-width: 1.5;" x1="373.5" x2="452.5" y1="257" y2="257"/><!--class ProductB--><rect fill="#FFFFFF" filter="url(#f1olrwxpzcla7)" height="48" id="ProductB" style="stroke: #000000; stroke-width: 1.5;" width="82" x="63" y="217"/><ellipse cx="78" cy="233" fill="#ADD1B2" rx="11" ry="11" style="stroke: #000000; stroke-width: 1.0;"/><path d="M80.7656,228.875 Q80.9219,228.6563 81.1094,228.5469 Q81.2969,228.4375 81.5156,228.4375 Q81.8906,228.4375 82.125,228.6953 Q82.3594,228.9531 82.3594,229.5625 L82.3594,231.0156 Q82.3594,231.625 82.125,231.8906 Q81.8906,232.1563 81.5156,232.1563 Q81.1719,232.1563 80.9688,231.9531 Q80.7656,231.7656 80.6563,231.25 Q80.6094,230.8906 80.4219,230.7031 Q80.0938,230.3281 79.4844,230.1094 Q78.875,229.8906 78.25,229.8906 Q77.4844,229.8906 76.8516,230.2188 Q76.2188,230.5469 75.7266,231.2969 Q75.2344,232.0469 75.2344,233.0781 L75.2344,234.1719 Q75.2344,235.4063 76.125,236.2266 Q77.0156,237.0469 78.6094,237.0469 Q79.5469,237.0469 80.2031,236.7969 Q80.5938,236.6406 81.0156,236.2031 Q81.2813,235.9375 81.4297,235.8594 Q81.5781,235.7813 81.7813,235.7813 Q82.1094,235.7813 82.3672,236.0391 Q82.625,236.2969 82.625,236.6406 Q82.625,236.9844 82.2813,237.3906 Q81.7813,237.9688 80.9844,238.2969 Q79.9063,238.75 78.6094,238.75 Q77.0938,238.75 75.8906,238.125 Q74.9063,237.625 74.2188,236.5547 Q73.5313,235.4844 73.5313,234.2031 L73.5313,233.0469 Q73.5313,231.7188 74.1484,230.5703 Q74.7656,229.4219 75.8594,228.8047 Q76.9531,228.1875 78.1875,228.1875 Q78.9219,228.1875 79.5703,228.3516 Q80.2188,228.5156 80.7656,228.875 Z "/><text fill="#000000" font-family="sans-serif" font-size="12" lengthAdjust="spacingAndGlyphs" textLength="50" x="92" y="237.9102">ProductB</text><line style="stroke: #000000; stroke-width: 1.5;" x1="64" x2="144" y1="249" y2="249"/><line style="stroke: #000000; stroke-width: 1.5;" x1="64" x2="144" y1="257" y2="257"/><!--class ConcreteBuilderA--><rect fill="#FFFFFF" filter="url(#f1olrwxpzcla7)" height="75.6719" id="ConcreteBuilderA" style="stroke: #000000; stroke-width: 1.5;" width="132" x="347" y="60"/><ellipse cx="363.8" cy="76" fill="#ADD1B2" rx="11" ry="11" style="stroke: #000000; stroke-width: 1.0;"/><path d="M366.5656,71.875 Q366.7219,71.6563 366.9094,71.5469 Q367.0969,71.4375 367.3156,71.4375 Q367.6906,71.4375 367.925,71.6953 Q368.1594,71.9531 368.1594,72.5625 L368.1594,74.0156 Q368.1594,74.625 367.925,74.8906 Q367.6906,75.1563 367.3156,75.1563 Q366.9719,75.1563 366.7688,74.9531 Q366.5656,74.7656 366.4563,74.25 Q366.4094,73.8906 366.2219,73.7031 Q365.8938,73.3281 365.2844,73.1094 Q364.675,72.8906 364.05,72.8906 Q363.2844,72.8906 362.6516,73.2188 Q362.0188,73.5469 361.5266,74.2969 Q361.0344,75.0469 361.0344,76.0781 L361.0344,77.1719 Q361.0344,78.4063 361.925,79.2266 Q362.8156,80.0469 364.4094,80.0469 Q365.3469,80.0469 366.0031,79.7969 Q366.3938,79.6406 366.8156,79.2031 Q367.0813,78.9375 367.2297,78.8594 Q367.3781,78.7813 367.5813,78.7813 Q367.9094,78.7813 368.1672,79.0391 Q368.425,79.2969 368.425,79.6406 Q368.425,79.9844 368.0813,80.3906 Q367.5813,80.9688 366.7844,81.2969 Q365.7063,81.75 364.4094,81.75 Q362.8938,81.75 361.6906,81.125 Q360.7063,80.625 360.0188,79.5547 Q359.3313,78.4844 359.3313,77.2031 L359.3313,76.0469 Q359.3313,74.7188 359.9484,73.5703 Q360.5656,72.4219 361.6594,71.8047 Q362.7531,71.1875 363.9875,71.1875 Q364.7219,71.1875 365.3703,71.3516 Q366.0188,71.5156 366.5656,71.875 Z "/><text fill="#000000" font-family="sans-serif" font-size="12" lengthAdjust="spacingAndGlyphs" textLength="96" x="378.2" y="80.9102">ConcreteBuilderA</text><line style="stroke: #000000; stroke-width: 1.5;" x1="348" x2="478" y1="92" y2="92"/><rect fill="none" height="6" style="stroke: #C82930; stroke-width: 1.0;" width="6" x="355" y="100"/><text fill="#000000" font-family="sans-serif" font-size="11" lengthAdjust="spacingAndGlyphs" textLength="88" x="367" y="107.4189">prodcut: ProductA</text><line style="stroke: #000000; stroke-width: 1.5;" x1="348" x2="478" y1="113.8359" y2="113.8359"/><ellipse cx="358" cy="124.8359" fill="#84BE84" rx="3" ry="3" style="stroke: #038048; stroke-width: 1.0;"/><text fill="#000000" font-family="sans-serif" font-size="11" lengthAdjust="spacingAndGlyphs" textLength="106" x="367" y="129.2549">GetResult(): ProductA</text><!--class ConcreteBuilderB--><rect fill="#FFFFFF" filter="url(#f1olrwxpzcla7)" height="75.6719" id="ConcreteBuilderB" style="stroke: #000000; stroke-width: 1.5;" width="131" x="38.5" y="60"/><ellipse cx="54.4" cy="76" fill="#ADD1B2" rx="11" ry="11" style="stroke: #000000; stroke-width: 1.0;"/><path d="M57.1656,71.875 Q57.3219,71.6563 57.5094,71.5469 Q57.6969,71.4375 57.9156,71.4375 Q58.2906,71.4375 58.525,71.6953 Q58.7594,71.9531 58.7594,72.5625 L58.7594,74.0156 Q58.7594,74.625 58.525,74.8906 Q58.2906,75.1563 57.9156,75.1563 Q57.5719,75.1563 57.3688,74.9531 Q57.1656,74.7656 57.0563,74.25 Q57.0094,73.8906 56.8219,73.7031 Q56.4938,73.3281 55.8844,73.1094 Q55.275,72.8906 54.65,72.8906 Q53.8844,72.8906 53.2516,73.2188 Q52.6188,73.5469 52.1266,74.2969 Q51.6344,75.0469 51.6344,76.0781 L51.6344,77.1719 Q51.6344,78.4063 52.525,79.2266 Q53.4156,80.0469 55.0094,80.0469 Q55.9469,80.0469 56.6031,79.7969 Q56.9938,79.6406 57.4156,79.2031 Q57.6813,78.9375 57.8297,78.8594 Q57.9781,78.7813 58.1813,78.7813 Q58.5094,78.7813 58.7672,79.0391 Q59.025,79.2969 59.025,79.6406 Q59.025,79.9844 58.6813,80.3906 Q58.1813,80.9688 57.3844,81.2969 Q56.3063,81.75 55.0094,81.75 Q53.4938,81.75 52.2906,81.125 Q51.3063,80.625 50.6188,79.5547 Q49.9313,78.4844 49.9313,77.2031 L49.9313,76.0469 Q49.9313,74.7188 50.5484,73.5703 Q51.1656,72.4219 52.2594,71.8047 Q53.3531,71.1875 54.5875,71.1875 Q55.3219,71.1875 55.9703,71.3516 Q56.6188,71.5156 57.1656,71.875 Z "/><text fill="#000000" font-family="sans-serif" font-size="12" lengthAdjust="spacingAndGlyphs" textLength="97" x="68.6" y="80.9102">ConcreteBuilderB</text><line style="stroke: #000000; stroke-width: 1.5;" x1="39.5" x2="168.5" y1="92" y2="92"/><rect fill="none" height="6" style="stroke: #C82930; stroke-width: 1.0;" width="6" x="46.5" y="100"/><text fill="#000000" font-family="sans-serif" font-size="11" lengthAdjust="spacingAndGlyphs" textLength="87" x="58.5" y="107.4189">prodcut: ProductB</text><line style="stroke: #000000; stroke-width: 1.5;" x1="39.5" x2="168.5" y1="113.8359" y2="113.8359"/><ellipse cx="49.5" cy="124.8359" fill="#84BE84" rx="3" ry="3" style="stroke: #038048; stroke-width: 1.0;"/><text fill="#000000" font-family="sans-serif" font-size="11" lengthAdjust="spacingAndGlyphs" textLength="105" x="58.5" y="129.2549">GetResult(): ProductB</text><!--link Director to Builder--><path d="M258,148.046 C258,148.046 258,171.518 258,182.654 " fill="none" id="Director-Builder" style="stroke: #000000; stroke-width: 1.0;"/><polygon fill="#000000" points="258,195.934,262,186.934,258,190.934,254,186.934,258,195.934" style="stroke: #000000; stroke-width: 1.0;"/><line style="stroke: #000000; stroke-width: 1.0;" x1="258" x2="258" y1="190.934" y2="182.9335"/><polygon fill="#FFFFFF" points="258,136.046,254,142.046,258,148.046,262,142.046,258,136.046" style="stroke: #000000; stroke-width: 1.0;"/><!--link ConcreteBuilderA to Builder--><path d="M372.276,136.046 C356.667,150.245 338.467,166.801 321.24,182.472 " fill="none" id="ConcreteBuilderA-&gt;Builder" style="stroke: #000000; stroke-width: 1.0; stroke-dasharray: 7.0,7.0;"/><polygon fill="none" points="325.947,187.653,306.442,195.934,316.526,177.297,325.947,187.653" style="stroke: #000000; stroke-width: 1.0;"/><!--link ConcreteBuilderB to Builder--><path d="M144.462,136.046 C159.892,150.174 177.87,166.634 194.909,182.234 " fill="none" id="ConcreteBuilderB-&gt;Builder" style="stroke: #000000; stroke-width: 1.0; stroke-dasharray: 7.0,7.0;"/><polygon fill="none" points="199.847,177.265,209.871,195.934,190.393,187.591,199.847,177.265" style="stroke: #000000; stroke-width: 1.0;"/><!--link ConcreteBuilderA to ProductA--><path d="M413,136.046 C413,159.765 413,190.061 413,211.819 " fill="none" id="ConcreteBuilderA-&gt;ProductA" style="stroke: #000000; stroke-width: 1.0;"/><polygon fill="#000000" points="413,216.88,417,207.88,413,211.88,409,207.88,413,216.88" style="stroke: #000000; stroke-width: 1.0;"/><!--link ConcreteBuilderB to ProductB--><path d="M104,136.046 C104,159.765 104,190.061 104,211.819 " fill="none" id="ConcreteBuilderB-&gt;ProductB" style="stroke: #000000; stroke-width: 1.0;"/><polygon fill="#000000" points="104,216.88,108,207.88,104,211.88,100,207.88,104,216.88" style="stroke: #000000; stroke-width: 1.0;"/><!--
@startuml
package "BuilderExample" {
    skinparam class {
	BackgroundColor White
	ArrowColor Black
	BorderColor Black
    }

    class Director {
        -builder: Builder

        +Construct(): void
    }

    interface Builder {
        +BuildStepA(): void
        +BuildStepB(): void
        +BuildStepC(): void
    }

    class ProductA {

    }

    class ProductB {
        
    }

    class ConcreteBuilderA {
        -prodcut: ProductA

        +GetResult(): ProductA
    }

    class ConcreteBuilderB {
        -prodcut: ProductB

        +GetResult(): ProductB
    }

    Director o- -> Builder
    ConcreteBuilderA ..|> Builder
    ConcreteBuilderB ..|> Builder
    ConcreteBuilderA - -> ProductA
    ConcreteBuilderB - -> ProductB
} 
@enduml

PlantUML version 1.2019.09(Mon Aug 26 21:19:51 YEKT 2019)
(GPL source distribution)
Java Runtime: Java(TM) SE Runtime Environment
JVM: Java HotSpot(TM) 64-Bit Server VM
Java Version: 1.8.0_241-b07
Operating System: Windows 10
OS Version: 10.0
Default Encoding: Cp1251
Language: en
Country: US
--></g></svg>